<mxfile host="app.diagrams.net" agent="Mozilla/5.0 (Windows NT 10.0; Win64; x64) AppleWebKit/537.36 (KHTML, like Gecko) Chrome/131.0.0.0 Safari/537.36" version="25.0.1">
  <diagram name="Page-1" id="yv-rJ1ivZgTn6YrtMwu7">
    <mxGraphModel dx="7277" dy="3954" grid="1" gridSize="10" guides="1" tooltips="1" connect="1" arrows="1" fold="1" page="1" pageScale="1" pageWidth="827" pageHeight="1169" math="0" shadow="0">
      <root>
        <mxCell id="0" />
        <mxCell id="1" parent="0" />
        <mxCell id="PYPsiDRyCnPlCEu5iL4S-112" value="&lt;div style=&quot;box-sizing:border-box;width:100%;background:#e4e4e4;padding:2px;&quot;&gt;&lt;span style=&quot;font-family: Helvetica; text-align: center; text-wrap-mode: wrap; background-color: rgb(251, 251, 251);&quot;&gt;user&lt;/span&gt;&lt;/div&gt;&lt;table style=&quot;width:100%;font-size:1em;&quot; cellpadding=&quot;2&quot; cellspacing=&quot;0&quot;&gt;&lt;tbody&gt;&lt;tr&gt;&lt;td&gt;PK&lt;/td&gt;&lt;td&gt;user_id&lt;/td&gt;&lt;td&gt;Числовой&lt;/td&gt;&lt;td&gt;обяз.&lt;/td&gt;&lt;td&gt;-&lt;/td&gt;&lt;/tr&gt;&lt;tr&gt;&lt;td&gt;&lt;br&gt;&lt;/td&gt;&lt;td&gt;email&lt;/td&gt;&lt;td&gt;Текстовый&lt;/td&gt;&lt;td&gt;обяз.&lt;/td&gt;&lt;td&gt;-&lt;/td&gt;&lt;/tr&gt;&lt;tr&gt;&lt;td&gt;&lt;br&gt;&lt;/td&gt;&lt;td&gt;password&lt;/td&gt;&lt;td&gt;Текстовый&lt;/td&gt;&lt;td&gt;обяз.&lt;/td&gt;&lt;td&gt;-&lt;/td&gt;&lt;/tr&gt;&lt;tr&gt;&lt;td&gt;&lt;br&gt;&lt;/td&gt;&lt;td&gt;verification_flag&lt;/td&gt;&lt;td&gt;Логический&lt;/td&gt;&lt;td&gt;необяз.&lt;/td&gt;&lt;td&gt;false&lt;/td&gt;&lt;/tr&gt;&lt;tr&gt;&lt;td&gt;&lt;/td&gt;&lt;td&gt;phone_number&lt;/td&gt;&lt;td&gt;Текстовый&lt;/td&gt;&lt;td&gt;необяз.&lt;/td&gt;&lt;td&gt;-&lt;/td&gt;&lt;/tr&gt;&lt;/tbody&gt;&lt;/table&gt;" style="verticalAlign=top;align=left;overflow=fill;html=1;rounded=0;shadow=0;comic=0;labelBackgroundColor=none;strokeWidth=1;fontFamily=Verdana;fontSize=12" parent="1" vertex="1">
          <mxGeometry x="330" y="40" width="330" height="110" as="geometry" />
        </mxCell>
        <mxCell id="PYPsiDRyCnPlCEu5iL4S-127" value="&lt;div style=&quot;box-sizing: border-box ; width: 100% ; background: #e4e4e4 ; padding: 2px&quot;&gt;&lt;span style=&quot;font-family: Helvetica; text-align: center; text-wrap-mode: wrap; background-color: rgb(255, 255, 255);&quot;&gt;vehicle&lt;/span&gt;&lt;/div&gt;&lt;table style=&quot;width: 100% ; font-size: 1em&quot; cellpadding=&quot;2&quot; cellspacing=&quot;0&quot;&gt;&lt;tbody&gt;&lt;tr&gt;&lt;td&gt;PK&lt;br&gt;&lt;/td&gt;&lt;td&gt;&lt;span style=&quot;text-wrap-mode: wrap; font-family: Helvetica; text-align: center; background-color: rgb(255, 255, 255);&quot;&gt;vehicle_i&lt;/span&gt;d&lt;/td&gt;&lt;td&gt;Числовой&lt;/td&gt;&lt;td&gt;обяз.&lt;/td&gt;&lt;td&gt;-&lt;/td&gt;&lt;/tr&gt;&lt;tr&gt;&lt;td&gt;FK&lt;/td&gt;&lt;td&gt;user_id&lt;/td&gt;&lt;td&gt;Числовой&lt;/td&gt;&lt;td&gt;обяз.&lt;/td&gt;&lt;td&gt;-&lt;/td&gt;&lt;/tr&gt;&lt;tr&gt;&lt;td&gt;FK&lt;/td&gt;&lt;td&gt;vehicle_category_id&lt;/td&gt;&lt;td&gt;Числовой&lt;/td&gt;&lt;td&gt;обяз.&lt;/td&gt;&lt;td&gt;-&lt;/td&gt;&lt;/tr&gt;&lt;tr&gt;&lt;td&gt;&lt;br&gt;&lt;/td&gt;&lt;td&gt;vehicle_number&lt;br&gt;&lt;/td&gt;&lt;td&gt;Текстовый&lt;/td&gt;&lt;td&gt;обяз.&lt;/td&gt;&lt;td&gt;-&lt;/td&gt;&lt;/tr&gt;&lt;tr&gt;&lt;td&gt;&lt;/td&gt;&lt;td&gt;non-standard_vehicle_number&lt;/td&gt;&lt;td&gt;Логический&lt;/td&gt;&lt;td&gt;обяз.&lt;/td&gt;&lt;td&gt;false&lt;/td&gt;&lt;/tr&gt;&lt;/tbody&gt;&lt;/table&gt;" style="verticalAlign=top;align=left;overflow=fill;html=1;rounded=0;shadow=0;comic=0;labelBackgroundColor=none;strokeWidth=1;fontFamily=Verdana;fontSize=12" parent="1" vertex="1">
          <mxGeometry x="90" y="200" width="360" height="120" as="geometry" />
        </mxCell>
        <mxCell id="PYPsiDRyCnPlCEu5iL4S-130" value="Пользователь&lt;div&gt;user&lt;/div&gt;" style="rounded=0;whiteSpace=wrap;html=1;" parent="1" vertex="1">
          <mxGeometry x="390" y="-850" width="120" height="60" as="geometry" />
        </mxCell>
        <mxCell id="PYPsiDRyCnPlCEu5iL4S-131" value="Трасса&lt;div&gt;road&lt;/div&gt;" style="rounded=0;whiteSpace=wrap;html=1;" parent="1" vertex="1">
          <mxGeometry x="740" y="-740" width="120" height="60" as="geometry" />
        </mxCell>
        <mxCell id="PYPsiDRyCnPlCEu5iL4S-132" value="" style="edgeStyle=orthogonalEdgeStyle;rounded=0;orthogonalLoop=1;jettySize=auto;html=1;" parent="1" source="PYPsiDRyCnPlCEu5iL4S-133" target="PYPsiDRyCnPlCEu5iL4S-131" edge="1">
          <mxGeometry relative="1" as="geometry" />
        </mxCell>
        <mxCell id="PYPsiDRyCnPlCEu5iL4S-133" value="Локация&lt;div&gt;location&lt;/div&gt;" style="rounded=0;whiteSpace=wrap;html=1;" parent="1" vertex="1">
          <mxGeometry x="970" y="-740" width="120" height="60" as="geometry" />
        </mxCell>
        <mxCell id="PYPsiDRyCnPlCEu5iL4S-134" value="Тип транспондера&lt;div&gt;transponder_type&lt;/div&gt;" style="rounded=0;whiteSpace=wrap;html=1;" parent="1" vertex="1">
          <mxGeometry x="550" y="-630" width="120" height="60" as="geometry" />
        </mxCell>
        <mxCell id="PYPsiDRyCnPlCEu5iL4S-135" value="Категория ТС&lt;div&gt;&lt;span style=&quot;background-color: rgb(255, 255, 255);&quot;&gt;vehicle_category&lt;/span&gt;&lt;/div&gt;" style="rounded=0;whiteSpace=wrap;html=1;" parent="1" vertex="1">
          <mxGeometry x="230" y="-630" width="120" height="60" as="geometry" />
        </mxCell>
        <mxCell id="PYPsiDRyCnPlCEu5iL4S-136" value="ТС&lt;div&gt;&lt;span style=&quot;background-color: rgb(255, 255, 255);&quot;&gt;vehicle&lt;/span&gt;&lt;/div&gt;" style="rounded=0;whiteSpace=wrap;html=1;" parent="1" vertex="1">
          <mxGeometry x="230" y="-740" width="120" height="60" as="geometry" />
        </mxCell>
        <mxCell id="PYPsiDRyCnPlCEu5iL4S-137" value="Платежные методы (карта для оплаты)&lt;div&gt;payment&lt;/div&gt;" style="rounded=0;whiteSpace=wrap;html=1;" parent="1" vertex="1">
          <mxGeometry x="390" y="-740" width="120" height="60" as="geometry" />
        </mxCell>
        <mxCell id="PYPsiDRyCnPlCEu5iL4S-138" value="Транспондер&lt;div&gt;transponder&lt;/div&gt;" style="rounded=0;whiteSpace=wrap;html=1;" parent="1" vertex="1">
          <mxGeometry x="550" y="-740" width="120" height="60" as="geometry" />
        </mxCell>
        <mxCell id="PYPsiDRyCnPlCEu5iL4S-139" style="edgeStyle=orthogonalEdgeStyle;html=1;dashed=1;labelBackgroundColor=none;startArrow=ERone;endArrow=ERoneToMany;fontFamily=Verdana;fontSize=12;align=left;exitX=1;exitY=0.5;exitDx=0;exitDy=0;entryX=0;entryY=0.5;entryDx=0;entryDy=0;startFill=0;endFill=0;" parent="1" source="PYPsiDRyCnPlCEu5iL4S-131" target="PYPsiDRyCnPlCEu5iL4S-133" edge="1">
          <mxGeometry relative="1" as="geometry">
            <mxPoint x="870" y="-620" as="sourcePoint" />
            <mxPoint x="1060" y="-740" as="targetPoint" />
          </mxGeometry>
        </mxCell>
        <mxCell id="PYPsiDRyCnPlCEu5iL4S-140" style="edgeStyle=orthogonalEdgeStyle;html=1;dashed=1;labelBackgroundColor=none;startArrow=ERone;endArrow=ERzeroToMany;fontFamily=Verdana;fontSize=12;align=left;exitX=0.5;exitY=1;exitDx=0;exitDy=0;entryX=0.5;entryY=0;entryDx=0;entryDy=0;startFill=0;endFill=0;" parent="1" source="PYPsiDRyCnPlCEu5iL4S-130" target="PYPsiDRyCnPlCEu5iL4S-137" edge="1">
          <mxGeometry relative="1" as="geometry">
            <mxPoint x="770" y="-690" as="sourcePoint" />
            <mxPoint x="810" y="-690" as="targetPoint" />
          </mxGeometry>
        </mxCell>
        <mxCell id="PYPsiDRyCnPlCEu5iL4S-141" style="edgeStyle=orthogonalEdgeStyle;html=1;dashed=1;labelBackgroundColor=none;startArrow=ERone;endArrow=ERzeroToOne;fontFamily=Verdana;fontSize=12;align=left;exitX=0;exitY=0.5;exitDx=0;exitDy=0;entryX=0.5;entryY=0;entryDx=0;entryDy=0;startFill=0;endFill=0;" parent="1" source="PYPsiDRyCnPlCEu5iL4S-130" target="PYPsiDRyCnPlCEu5iL4S-136" edge="1">
          <mxGeometry relative="1" as="geometry">
            <mxPoint x="410" y="-690" as="sourcePoint" />
            <mxPoint x="370" y="-690" as="targetPoint" />
            <Array as="points">
              <mxPoint x="290" y="-820" />
            </Array>
          </mxGeometry>
        </mxCell>
        <mxCell id="PYPsiDRyCnPlCEu5iL4S-142" style="edgeStyle=orthogonalEdgeStyle;html=1;dashed=1;labelBackgroundColor=none;startArrow=ERone;endArrow=ERzeroToMany;fontFamily=Verdana;fontSize=12;align=left;exitX=0.5;exitY=0;exitDx=0;exitDy=0;startFill=0;endFill=0;entryX=0.5;entryY=1;entryDx=0;entryDy=0;" parent="1" source="PYPsiDRyCnPlCEu5iL4S-135" target="PYPsiDRyCnPlCEu5iL4S-136" edge="1">
          <mxGeometry relative="1" as="geometry">
            <mxPoint x="590" y="-760" as="sourcePoint" />
            <mxPoint x="330" y="-660" as="targetPoint" />
            <Array as="points">
              <mxPoint x="290" y="-670" />
              <mxPoint x="290" y="-670" />
            </Array>
          </mxGeometry>
        </mxCell>
        <mxCell id="PYPsiDRyCnPlCEu5iL4S-143" style="edgeStyle=orthogonalEdgeStyle;html=1;dashed=1;labelBackgroundColor=none;startArrow=ERzeroToMany;endArrow=ERone;fontFamily=Verdana;fontSize=12;align=left;exitX=0.5;exitY=0;exitDx=0;exitDy=0;entryX=1;entryY=0.5;entryDx=0;entryDy=0;startFill=0;endFill=0;" parent="1" source="PYPsiDRyCnPlCEu5iL4S-138" target="PYPsiDRyCnPlCEu5iL4S-130" edge="1">
          <mxGeometry relative="1" as="geometry">
            <mxPoint x="390" y="-620.29" as="sourcePoint" />
            <mxPoint x="430" y="-620.29" as="targetPoint" />
          </mxGeometry>
        </mxCell>
        <mxCell id="PYPsiDRyCnPlCEu5iL4S-147" style="edgeStyle=orthogonalEdgeStyle;html=1;dashed=1;labelBackgroundColor=none;startArrow=ERone;endArrow=ERzeroToMany;fontFamily=Verdana;fontSize=12;align=left;exitX=0.5;exitY=0;exitDx=0;exitDy=0;startFill=0;endFill=0;entryX=0.5;entryY=1;entryDx=0;entryDy=0;" parent="1" source="PYPsiDRyCnPlCEu5iL4S-134" target="PYPsiDRyCnPlCEu5iL4S-138" edge="1">
          <mxGeometry relative="1" as="geometry">
            <mxPoint x="609.64" y="-620" as="sourcePoint" />
            <mxPoint x="609.64" y="-670" as="targetPoint" />
            <Array as="points" />
          </mxGeometry>
        </mxCell>
        <mxCell id="PYPsiDRyCnPlCEu5iL4S-150" value="&lt;div style=&quot;box-sizing:border-box;width:100%;background:#e4e4e4;padding:2px;&quot;&gt;&lt;span style=&quot;font-family: Helvetica; text-align: center; text-wrap-mode: wrap; background-color: rgb(255, 255, 255);&quot;&gt;vehicle_category&lt;/span&gt;&lt;/div&gt;&lt;table style=&quot;width:100%;font-size:1em;&quot; cellpadding=&quot;2&quot; cellspacing=&quot;0&quot;&gt;&lt;tbody&gt;&lt;tr&gt;&lt;td&gt;PK&lt;/td&gt;&lt;td&gt;vehicle_category_id&lt;/td&gt;&lt;td&gt;Числовой&lt;/td&gt;&lt;td&gt;обяз.&lt;/td&gt;&lt;td&gt;-&lt;/td&gt;&lt;/tr&gt;&lt;tr&gt;&lt;td&gt;&lt;br&gt;&lt;/td&gt;&lt;td&gt;vehicle_category_description&lt;/td&gt;&lt;td&gt;Текстовый&lt;/td&gt;&lt;td&gt;необяз.&lt;/td&gt;&lt;td&gt;-&lt;/td&gt;&lt;/tr&gt;&lt;tr&gt;&lt;td&gt;&lt;/td&gt;&lt;td&gt;image&lt;/td&gt;&lt;td&gt;Текстовый&lt;/td&gt;&lt;td&gt;необяз.&lt;/td&gt;&lt;td&gt;-&lt;/td&gt;&lt;/tr&gt;&lt;/tbody&gt;&lt;/table&gt;" style="verticalAlign=top;align=left;overflow=fill;html=1;rounded=0;shadow=0;comic=0;labelBackgroundColor=none;strokeWidth=1;fontFamily=Verdana;fontSize=12" parent="1" vertex="1">
          <mxGeometry x="85" y="360" width="370" height="80" as="geometry" />
        </mxCell>
        <mxCell id="PYPsiDRyCnPlCEu5iL4S-152" value="&lt;div style=&quot;box-sizing:border-box;width:100%;background:#e4e4e4;padding:2px;&quot;&gt;&lt;span style=&quot;font-family: Helvetica; text-align: center; text-wrap-mode: wrap; background-color: rgb(251, 251, 251);&quot;&gt;transponder_type&lt;/span&gt;&lt;/div&gt;&lt;table style=&quot;width:100%;font-size:1em;&quot; cellpadding=&quot;2&quot; cellspacing=&quot;0&quot;&gt;&lt;tbody&gt;&lt;tr&gt;&lt;td&gt;PK&lt;/td&gt;&lt;td&gt;transponder_type_id&lt;/td&gt;&lt;td&gt;Числовой&lt;/td&gt;&lt;td&gt;обяз.&lt;/td&gt;&lt;td&gt;-&lt;/td&gt;&lt;/tr&gt;&lt;tr&gt;&lt;td&gt;&lt;br&gt;&lt;/td&gt;&lt;td&gt;transponder_name&lt;/td&gt;&lt;td&gt;Текстовый&lt;/td&gt;&lt;td&gt;обяз.&lt;/td&gt;&lt;td&gt;-&lt;/td&gt;&lt;/tr&gt;&lt;tr&gt;&lt;td&gt;FK&lt;/td&gt;&lt;td&gt;company_id&lt;/td&gt;&lt;td&gt;Числовой&lt;/td&gt;&lt;td&gt;обяз.&lt;/td&gt;&lt;td&gt;-&lt;/td&gt;&lt;/tr&gt;&lt;tr&gt;&lt;td&gt;&lt;br&gt;&lt;/td&gt;&lt;td&gt;image&lt;/td&gt;&lt;td&gt;Текстовый&lt;/td&gt;&lt;td&gt;необяз.&lt;/td&gt;&lt;td&gt;-&lt;/td&gt;&lt;/tr&gt;&lt;/tbody&gt;&lt;/table&gt;" style="verticalAlign=top;align=left;overflow=fill;html=1;rounded=0;shadow=0;comic=0;labelBackgroundColor=none;strokeWidth=1;fontFamily=Verdana;fontSize=12" parent="1" vertex="1">
          <mxGeometry x="910" y="200" width="280" height="100" as="geometry" />
        </mxCell>
        <mxCell id="PYPsiDRyCnPlCEu5iL4S-171" value="&lt;div style=&quot;box-sizing: border-box ; width: 100% ; background: #e4e4e4 ; padding: 2px&quot;&gt;&lt;span style=&quot;font-family: Helvetica; text-align: center; text-wrap-mode: wrap; background-color: rgb(251, 251, 251);&quot;&gt;payment&lt;/span&gt;&lt;/div&gt;&lt;table style=&quot;width: 100% ; font-size: 1em&quot; cellpadding=&quot;2&quot; cellspacing=&quot;0&quot;&gt;&lt;tbody&gt;&lt;tr&gt;&lt;td&gt;PK&lt;/td&gt;&lt;td&gt;card_id&lt;/td&gt;&lt;td&gt;Числовой&lt;/td&gt;&lt;td&gt;обяз.&lt;/td&gt;&lt;td&gt;-&lt;/td&gt;&lt;/tr&gt;&lt;tr&gt;&lt;td&gt;FK&lt;/td&gt;&lt;td&gt;user_id&lt;/td&gt;&lt;td&gt;Числовой&lt;/td&gt;&lt;td&gt;обяз.&lt;/td&gt;&lt;td&gt;-&lt;/td&gt;&lt;/tr&gt;&lt;tr&gt;&lt;td&gt;&lt;br&gt;&lt;/td&gt;&lt;td&gt;card_number&lt;/td&gt;&lt;td&gt;Текстовый&lt;/td&gt;&lt;td&gt;обяз.&lt;/td&gt;&lt;td&gt;-&lt;/td&gt;&lt;/tr&gt;&lt;tr&gt;&lt;td&gt;&lt;br&gt;&lt;/td&gt;&lt;td&gt;validity_period&lt;/td&gt;&lt;td&gt;Числовой&lt;/td&gt;&lt;td&gt;обяз.&lt;/td&gt;&lt;td&gt;-&lt;/td&gt;&lt;/tr&gt;&lt;tr&gt;&lt;td&gt;&lt;br&gt;&lt;/td&gt;&lt;td&gt;cvv&lt;br&gt;&lt;/td&gt;&lt;td&gt;Текстовый&lt;/td&gt;&lt;td&gt;обяз.&lt;/td&gt;&lt;td&gt;-&lt;/td&gt;&lt;/tr&gt;&lt;/tbody&gt;&lt;/table&gt;" style="verticalAlign=top;align=left;overflow=fill;html=1;rounded=0;shadow=0;comic=0;labelBackgroundColor=none;strokeWidth=1;fontFamily=Verdana;fontSize=12" parent="1" vertex="1">
          <mxGeometry x="500" y="200" width="270" height="120" as="geometry" />
        </mxCell>
        <mxCell id="QZlLGX_LX9bqcIJWSxwp-2" value="&lt;div style=&quot;box-sizing: border-box ; width: 100% ; background: #e4e4e4 ; padding: 2px&quot;&gt;&lt;span style=&quot;font-family: Helvetica; text-align: center; text-wrap-mode: wrap; background-color: rgb(255, 255, 255);&quot;&gt;road&lt;/span&gt;&lt;/div&gt;&lt;table style=&quot;width: 100% ; font-size: 1em&quot; cellpadding=&quot;2&quot; cellspacing=&quot;0&quot;&gt;&lt;tbody&gt;&lt;tr style=&quot;font-size: 13px;&quot;&gt;&lt;td&gt;PK&lt;br&gt;&lt;/td&gt;&lt;td&gt;&lt;span style=&quot;text-wrap-mode: wrap; font-family: Helvetica; text-align: center; background-color: rgb(255, 255, 255);&quot;&gt;road_i&lt;/span&gt;d&lt;/td&gt;&lt;td&gt;Числовой&lt;/td&gt;&lt;td&gt;&lt;span style=&quot;font-size: 12px;&quot;&gt;обяз.&lt;/span&gt;&lt;/td&gt;&lt;td&gt;-&lt;/td&gt;&lt;/tr&gt;&lt;tr&gt;&lt;td&gt;&lt;br&gt;&lt;/td&gt;&lt;td&gt;road_full_name&lt;/td&gt;&lt;td&gt;Текстовый&lt;/td&gt;&lt;td&gt;обяз.&lt;/td&gt;&lt;td&gt;-&lt;/td&gt;&lt;/tr&gt;&lt;tr&gt;&lt;td&gt;&lt;br&gt;&lt;/td&gt;&lt;td&gt;road_short_name&lt;/td&gt;&lt;td&gt;Текстовый&lt;/td&gt;&lt;td&gt;необяз.&lt;/td&gt;&lt;td&gt;-&lt;/td&gt;&lt;/tr&gt;&lt;tr&gt;&lt;td&gt;FK&lt;/td&gt;&lt;td&gt;start_location&lt;/td&gt;&lt;td&gt;Числовой&lt;/td&gt;&lt;td&gt;обяз.&lt;/td&gt;&lt;td&gt;-&lt;/td&gt;&lt;/tr&gt;&lt;tr&gt;&lt;td&gt;FK&lt;/td&gt;&lt;td&gt;end_location&lt;br&gt;&lt;/td&gt;&lt;td&gt;Числовой&lt;/td&gt;&lt;td&gt;обяз.&lt;/td&gt;&lt;td&gt;-&lt;/td&gt;&lt;/tr&gt;&lt;tr&gt;&lt;td&gt;FK&lt;/td&gt;&lt;td&gt;company_id&lt;/td&gt;&lt;td&gt;Числовой&lt;/td&gt;&lt;td&gt;обяз.&lt;/td&gt;&lt;td&gt;-&lt;/td&gt;&lt;/tr&gt;&lt;/tbody&gt;&lt;/table&gt;" style="verticalAlign=top;align=left;overflow=fill;html=1;rounded=0;shadow=0;comic=0;labelBackgroundColor=none;strokeWidth=1;fontFamily=Verdana;fontSize=12" parent="1" vertex="1">
          <mxGeometry x="910" y="450" width="280" height="140" as="geometry" />
        </mxCell>
        <mxCell id="QZlLGX_LX9bqcIJWSxwp-3" value="&lt;div style=&quot;box-sizing: border-box ; width: 100% ; background: #e4e4e4 ; padding: 2px&quot;&gt;&lt;span style=&quot;font-family: Helvetica; text-align: center; text-wrap-mode: wrap; background-color: rgb(255, 255, 255);&quot;&gt;location&lt;/span&gt;&lt;/div&gt;&lt;table style=&quot;width: 100% ; font-size: 1em&quot; cellpadding=&quot;2&quot; cellspacing=&quot;0&quot;&gt;&lt;tbody&gt;&lt;tr style=&quot;font-size: 13px;&quot;&gt;&lt;td&gt;PK&lt;br&gt;&lt;/td&gt;&lt;td&gt;&lt;span style=&quot;text-wrap-mode: wrap; font-family: Helvetica; text-align: center; background-color: rgb(255, 255, 255);&quot;&gt;location_i&lt;/span&gt;d&lt;/td&gt;&lt;td&gt;Числовой&lt;/td&gt;&lt;td&gt;&lt;span style=&quot;font-size: 12px;&quot;&gt;обяз.&lt;/span&gt;&lt;/td&gt;&lt;td&gt;-&lt;/td&gt;&lt;/tr&gt;&lt;tr&gt;&lt;td&gt;FK&lt;/td&gt;&lt;td&gt;road_id&lt;/td&gt;&lt;td&gt;Числовой&lt;/td&gt;&lt;td&gt;обяз.&lt;/td&gt;&lt;td&gt;-&lt;/td&gt;&lt;/tr&gt;&lt;tr&gt;&lt;td&gt;FK&lt;/td&gt;&lt;td&gt;city_id&lt;/td&gt;&lt;td&gt;Числовой&lt;/td&gt;&lt;td&gt;необяз.&lt;/td&gt;&lt;td&gt;-&lt;/td&gt;&lt;/tr&gt;&lt;tr&gt;&lt;td&gt;&lt;br&gt;&lt;/td&gt;&lt;td&gt;&lt;span style=&quot;font-family: Helvetica; font-size: 13px; text-align: center; text-wrap-mode: wrap; background-color: rgb(255, 255, 255);&quot;&gt;location_name&lt;/span&gt;&lt;/td&gt;&lt;td&gt;Текстовый&lt;/td&gt;&lt;td&gt;обяз.&lt;/td&gt;&lt;td&gt;-&lt;/td&gt;&lt;/tr&gt;&lt;tr&gt;&lt;td&gt;&lt;br&gt;&lt;/td&gt;&lt;td&gt;description&lt;/td&gt;&lt;td&gt;Текстовый&lt;/td&gt;&lt;td&gt;необяз.&lt;/td&gt;&lt;td&gt;-&lt;/td&gt;&lt;/tr&gt;&lt;tr&gt;&lt;td&gt;&lt;/td&gt;&lt;td&gt;km_of_road&lt;/td&gt;&lt;td&gt;Числовой&lt;/td&gt;&lt;td&gt;необяз.&lt;/td&gt;&lt;td&gt;-&lt;/td&gt;&lt;/tr&gt;&lt;tr&gt;&lt;td&gt;&lt;br&gt;&lt;/td&gt;&lt;td&gt;latitude&lt;/td&gt;&lt;td&gt;Числовой&lt;/td&gt;&lt;td&gt;обяз.&lt;/td&gt;&lt;td&gt;-&lt;/td&gt;&lt;/tr&gt;&lt;tr&gt;&lt;td&gt;&lt;br&gt;&lt;/td&gt;&lt;td&gt;longitude&lt;/td&gt;&lt;td&gt;Числовой&lt;/td&gt;&lt;td&gt;обяз.&lt;/td&gt;&lt;td&gt;-&lt;/td&gt;&lt;/tr&gt;&lt;tr&gt;&lt;td&gt;&lt;br&gt;&lt;/td&gt;&lt;td&gt;PVP&lt;/td&gt;&lt;td&gt;Логический&lt;/td&gt;&lt;td&gt;обяз.&lt;/td&gt;&lt;td&gt;false&lt;/td&gt;&lt;/tr&gt;&lt;/tbody&gt;&lt;/table&gt;" style="verticalAlign=top;align=left;overflow=fill;html=1;rounded=0;shadow=0;comic=0;labelBackgroundColor=none;strokeWidth=1;fontFamily=Verdana;fontSize=12" parent="1" vertex="1">
          <mxGeometry x="912.5" y="630" width="275" height="190" as="geometry" />
        </mxCell>
        <mxCell id="QZlLGX_LX9bqcIJWSxwp-4" value="&lt;div style=&quot;box-sizing: border-box ; width: 100% ; background: #e4e4e4 ; padding: 2px&quot;&gt;&lt;span style=&quot;font-family: Helvetica; text-align: center; text-wrap-mode: wrap; background-color: rgb(255, 255, 255);&quot;&gt;city&lt;/span&gt;&lt;/div&gt;&lt;table style=&quot;width: 100% ; font-size: 1em&quot; cellpadding=&quot;2&quot; cellspacing=&quot;0&quot;&gt;&lt;tbody&gt;&lt;tr&gt;&lt;td&gt;PK&lt;br&gt;&lt;/td&gt;&lt;td&gt;&lt;span style=&quot;text-wrap-mode: wrap; font-family: Helvetica; text-align: center; background-color: rgb(255, 255, 255);&quot;&gt;city_i&lt;/span&gt;d&lt;/td&gt;&lt;td&gt;Числовой&lt;/td&gt;&lt;td&gt;обяз.&lt;/td&gt;&lt;td&gt;-&lt;/td&gt;&lt;/tr&gt;&lt;tr&gt;&lt;td&gt;&lt;br&gt;&lt;/td&gt;&lt;td&gt;name&lt;/td&gt;&lt;td&gt;Текстовый&lt;/td&gt;&lt;td&gt;обяз.&lt;/td&gt;&lt;td&gt;-&lt;/td&gt;&lt;/tr&gt;&lt;/tbody&gt;&lt;/table&gt;" style="verticalAlign=top;align=left;overflow=fill;html=1;rounded=0;shadow=0;comic=0;labelBackgroundColor=none;strokeWidth=1;fontFamily=Verdana;fontSize=12" parent="1" vertex="1">
          <mxGeometry x="1245" y="690" width="180" height="70" as="geometry" />
        </mxCell>
        <mxCell id="QZlLGX_LX9bqcIJWSxwp-5" value="&lt;div style=&quot;box-sizing:border-box;width:100%;background:#e4e4e4;padding:2px;&quot;&gt;&lt;span style=&quot;font-family: Helvetica; text-align: center; text-wrap-mode: wrap; background-color: rgb(251, 251, 251);&quot;&gt;company&lt;/span&gt;&lt;/div&gt;&lt;table style=&quot;width:100%;font-size:1em;&quot; cellpadding=&quot;2&quot; cellspacing=&quot;0&quot;&gt;&lt;tbody&gt;&lt;tr&gt;&lt;td&gt;PK&lt;/td&gt;&lt;td&gt;company_id&lt;/td&gt;&lt;td&gt;Числовой&lt;/td&gt;&lt;td&gt;обяз.&lt;/td&gt;&lt;td&gt;-&lt;/td&gt;&lt;/tr&gt;&lt;tr&gt;&lt;td&gt;&lt;br&gt;&lt;/td&gt;&lt;td&gt;company_full_name&lt;br&gt;&lt;/td&gt;&lt;td&gt;Текстовый&lt;/td&gt;&lt;td&gt;обяз.&lt;/td&gt;&lt;td&gt;-&lt;/td&gt;&lt;/tr&gt;&lt;tr&gt;&lt;td&gt;&lt;br&gt;&lt;/td&gt;&lt;td&gt;company_short_name&lt;br&gt;&lt;/td&gt;&lt;td&gt;Текстовый&lt;/td&gt;&lt;td&gt;необяз.&lt;/td&gt;&lt;td&gt;-&lt;/td&gt;&lt;/tr&gt;&lt;/tbody&gt;&lt;/table&gt;" style="verticalAlign=top;align=left;overflow=fill;html=1;rounded=0;shadow=0;comic=0;labelBackgroundColor=none;strokeWidth=1;fontFamily=Verdana;fontSize=12" parent="1" vertex="1">
          <mxGeometry x="905" y="330" width="290" height="86" as="geometry" />
        </mxCell>
        <mxCell id="QZlLGX_LX9bqcIJWSxwp-6" value="Государственный регистрационный номер" style="text;html=1;align=left;verticalAlign=middle;whiteSpace=wrap;rounded=0;" parent="1" vertex="1">
          <mxGeometry x="-50" y="260" width="100" height="60" as="geometry" />
        </mxCell>
        <mxCell id="QZlLGX_LX9bqcIJWSxwp-7" value="" style="endArrow=none;dashed=1;html=1;dashPattern=1 3;strokeWidth=2;rounded=0;exitX=1;exitY=0.5;exitDx=0;exitDy=0;entryX=0;entryY=0.75;entryDx=0;entryDy=0;" parent="1" source="QZlLGX_LX9bqcIJWSxwp-6" target="PYPsiDRyCnPlCEu5iL4S-127" edge="1">
          <mxGeometry width="50" height="50" relative="1" as="geometry">
            <mxPoint x="40" y="270" as="sourcePoint" />
            <mxPoint x="90" y="160" as="targetPoint" />
          </mxGeometry>
        </mxCell>
        <mxCell id="QZlLGX_LX9bqcIJWSxwp-8" value="Номер лицевого счета&lt;div&gt;&lt;br&gt;&lt;div&gt;PAN-номер транспондера&lt;/div&gt;&lt;/div&gt;" style="text;html=1;align=left;verticalAlign=middle;whiteSpace=wrap;rounded=0;" parent="1" vertex="1">
          <mxGeometry x="1280" y="105" width="110" height="80" as="geometry" />
        </mxCell>
        <mxCell id="QZlLGX_LX9bqcIJWSxwp-9" value="" style="endArrow=none;dashed=1;html=1;dashPattern=1 3;strokeWidth=2;rounded=0;exitX=0;exitY=0.5;exitDx=0;exitDy=0;entryX=1;entryY=0.75;entryDx=0;entryDy=0;" parent="1" source="QZlLGX_LX9bqcIJWSxwp-8" target="uAxhGhGM27nR1Lqq1Pis-11" edge="1">
          <mxGeometry width="50" height="50" relative="1" as="geometry">
            <mxPoint x="1010" y="50" as="sourcePoint" />
            <mxPoint x="1155" y="270" as="targetPoint" />
          </mxGeometry>
        </mxCell>
        <mxCell id="vA6MetqxZLyiD_9jzKIk-3" value="Возможно, стоит добавить тип &quot;Любой&quot;&lt;div&gt;(актуально для расчета)&lt;/div&gt;" style="text;html=1;align=left;verticalAlign=middle;whiteSpace=wrap;rounded=0;" parent="1" vertex="1">
          <mxGeometry x="-50" y="460" width="145" height="60" as="geometry" />
        </mxCell>
        <mxCell id="vA6MetqxZLyiD_9jzKIk-5" value="" style="endArrow=none;dashed=1;html=1;dashPattern=1 3;strokeWidth=2;rounded=0;exitX=0.25;exitY=0;exitDx=0;exitDy=0;entryX=0.005;entryY=0.559;entryDx=0;entryDy=0;entryPerimeter=0;" parent="1" source="vA6MetqxZLyiD_9jzKIk-3" target="PYPsiDRyCnPlCEu5iL4S-150" edge="1">
          <mxGeometry width="50" height="50" relative="1" as="geometry">
            <mxPoint x="90" y="520" as="sourcePoint" />
            <mxPoint x="140" y="470" as="targetPoint" />
          </mxGeometry>
        </mxCell>
        <mxCell id="vA6MetqxZLyiD_9jzKIk-7" value="&lt;div style=&quot;box-sizing: border-box; width: 100%; background: rgb(228, 228, 228); padding: 2px;&quot;&gt;&lt;font face=&quot;Helvetica&quot;&gt;&lt;span style=&quot;text-wrap-mode: wrap;&quot;&gt;from_where&lt;/span&gt;&lt;/font&gt;&lt;/div&gt;&lt;table style=&quot;width: 100% ; font-size: 1em&quot; cellpadding=&quot;2&quot; cellspacing=&quot;0&quot;&gt;&lt;tbody&gt;&lt;tr&gt;&lt;td&gt;PK&lt;/td&gt;&lt;td&gt;from_where&lt;/td&gt;&lt;td&gt;Числовой&lt;/td&gt;&lt;td&gt;обяз.&lt;/td&gt;&lt;td&gt;-&lt;/td&gt;&lt;/tr&gt;&lt;tr&gt;&lt;td&gt;FK&lt;/td&gt;&lt;td&gt;start_location&lt;/td&gt;&lt;td&gt;Числовой&lt;/td&gt;&lt;td&gt;обяз.&lt;/td&gt;&lt;td&gt;-&lt;/td&gt;&lt;/tr&gt;&lt;tr&gt;&lt;td&gt;FK&lt;/td&gt;&lt;td&gt;end_location&lt;/td&gt;&lt;td&gt;Числовой&lt;/td&gt;&lt;td&gt;обяз.&lt;/td&gt;&lt;td&gt;-&lt;/td&gt;&lt;/tr&gt;&lt;tr&gt;&lt;td&gt;&lt;br&gt;&lt;/td&gt;&lt;td&gt;image&lt;/td&gt;&lt;td&gt;Текстовое&lt;/td&gt;&lt;td&gt;необяз.&lt;/td&gt;&lt;td&gt;-&lt;/td&gt;&lt;/tr&gt;&lt;/tbody&gt;&lt;/table&gt;" style="verticalAlign=top;align=left;overflow=fill;html=1;rounded=0;shadow=0;comic=0;labelBackgroundColor=none;strokeWidth=1;fontFamily=Verdana;fontSize=12" parent="1" vertex="1">
          <mxGeometry x="557.5" y="677.5" width="250" height="95" as="geometry" />
        </mxCell>
        <mxCell id="uAxhGhGM27nR1Lqq1Pis-2" value="Пароли, данные карт должны хранится в зашифрованном виде" style="text;html=1;align=left;verticalAlign=middle;whiteSpace=wrap;rounded=0;" parent="1" vertex="1">
          <mxGeometry x="680" y="120" width="130" height="50" as="geometry" />
        </mxCell>
        <mxCell id="uAxhGhGM27nR1Lqq1Pis-6" value="" style="endArrow=none;dashed=1;html=1;dashPattern=1 3;strokeWidth=2;rounded=0;entryX=0;entryY=0.5;entryDx=0;entryDy=0;exitX=1;exitY=0.75;exitDx=0;exitDy=0;" parent="1" source="PYPsiDRyCnPlCEu5iL4S-112" target="uAxhGhGM27nR1Lqq1Pis-2" edge="1">
          <mxGeometry width="50" height="50" relative="1" as="geometry">
            <mxPoint x="680" y="100" as="sourcePoint" />
            <mxPoint x="730" y="50" as="targetPoint" />
          </mxGeometry>
        </mxCell>
        <mxCell id="uAxhGhGM27nR1Lqq1Pis-7" value="" style="endArrow=none;dashed=1;html=1;dashPattern=1 3;strokeWidth=2;rounded=0;entryX=0;entryY=0.75;entryDx=0;entryDy=0;exitX=0.75;exitY=0;exitDx=0;exitDy=0;" parent="1" source="PYPsiDRyCnPlCEu5iL4S-171" target="uAxhGhGM27nR1Lqq1Pis-2" edge="1">
          <mxGeometry width="50" height="50" relative="1" as="geometry">
            <mxPoint x="600" y="210" as="sourcePoint" />
            <mxPoint x="650" y="160" as="targetPoint" />
          </mxGeometry>
        </mxCell>
        <mxCell id="uAxhGhGM27nR1Lqq1Pis-11" value="&lt;div style=&quot;box-sizing: border-box ; width: 100% ; background: #e4e4e4 ; padding: 2px&quot;&gt;&lt;span style=&quot;font-family: Helvetica; text-align: center; text-wrap-mode: wrap;&quot;&gt;transponder&lt;/span&gt;&lt;/div&gt;&lt;table style=&quot;width: 100% ; font-size: 1em&quot; cellpadding=&quot;2&quot; cellspacing=&quot;0&quot;&gt;&lt;tbody&gt;&lt;tr style=&quot;font-size: 13px;&quot;&gt;&lt;td&gt;PK&lt;br&gt;&lt;/td&gt;&lt;td&gt;&lt;span style=&quot;font-size: 12px;&quot;&gt;transponder&lt;/span&gt;&lt;span style=&quot;text-wrap-mode: wrap; font-family: Helvetica; text-align: center; background-color: rgb(255, 255, 255);&quot;&gt;_i&lt;/span&gt;d&lt;/td&gt;&lt;td&gt;Числовой&lt;/td&gt;&lt;td&gt;&lt;span style=&quot;font-size: 12px;&quot;&gt;обяз.&lt;/span&gt;&lt;/td&gt;&lt;td&gt;&lt;br&gt;&lt;/td&gt;&lt;/tr&gt;&lt;tr&gt;&lt;td&gt;FK&lt;/td&gt;&lt;td&gt;user_id&lt;/td&gt;&lt;td&gt;&lt;span style=&quot;font-size: 13px;&quot;&gt;Числовой&lt;/span&gt;&lt;/td&gt;&lt;td&gt;обяз.&lt;/td&gt;&lt;td&gt;&lt;br&gt;&lt;/td&gt;&lt;/tr&gt;&lt;tr&gt;&lt;td&gt;FK&lt;/td&gt;&lt;td&gt;transponder_type_id&lt;/td&gt;&lt;td&gt;&lt;span style=&quot;font-size: 13px;&quot;&gt;Числовой&lt;/span&gt;&lt;/td&gt;&lt;td&gt;обяз.&lt;/td&gt;&lt;td&gt;&lt;br&gt;&lt;/td&gt;&lt;/tr&gt;&lt;tr&gt;&lt;td&gt;&lt;br&gt;&lt;/td&gt;&lt;td&gt;transponder_personal_account&lt;/td&gt;&lt;td&gt;Числовой&lt;/td&gt;&lt;td&gt;необяз.&lt;/td&gt;&lt;td&gt;&lt;br&gt;&lt;/td&gt;&lt;/tr&gt;&lt;tr&gt;&lt;td&gt;&lt;br&gt;&lt;/td&gt;&lt;td&gt;PAN&lt;/td&gt;&lt;td&gt;Числовой&lt;/td&gt;&lt;td&gt;необяз.&lt;/td&gt;&lt;td&gt;&lt;br&gt;&lt;/td&gt;&lt;/tr&gt;&lt;tr&gt;&lt;td&gt;&lt;br&gt;&lt;/td&gt;&lt;td&gt;interoperability&lt;/td&gt;&lt;td&gt;Логический&lt;/td&gt;&lt;td&gt;необяз.&lt;/td&gt;&lt;td&gt;true&lt;/td&gt;&lt;/tr&gt;&lt;/tbody&gt;&lt;/table&gt;" style="verticalAlign=top;align=left;overflow=fill;html=1;rounded=0;shadow=0;comic=0;labelBackgroundColor=none;strokeWidth=1;fontFamily=Verdana;fontSize=12" parent="1" vertex="1">
          <mxGeometry x="860" y="25" width="380" height="140" as="geometry" />
        </mxCell>
        <mxCell id="uAxhGhGM27nR1Lqq1Pis-12" style="edgeStyle=orthogonalEdgeStyle;html=1;dashed=1;labelBackgroundColor=none;startArrow=ERone;endArrow=ERzeroToOne;fontFamily=Verdana;fontSize=12;align=left;exitX=0;exitY=0.5;exitDx=0;exitDy=0;entryX=0.5;entryY=0;entryDx=0;entryDy=0;startFill=0;endFill=0;" parent="1" source="PYPsiDRyCnPlCEu5iL4S-112" target="PYPsiDRyCnPlCEu5iL4S-127" edge="1">
          <mxGeometry relative="1" as="geometry">
            <mxPoint x="350" y="100" as="sourcePoint" />
            <mxPoint x="250" y="180" as="targetPoint" />
            <Array as="points">
              <mxPoint x="270" y="95" />
            </Array>
          </mxGeometry>
        </mxCell>
        <mxCell id="uAxhGhGM27nR1Lqq1Pis-13" style="edgeStyle=orthogonalEdgeStyle;html=1;dashed=1;labelBackgroundColor=none;startArrow=ERone;endArrow=ERzeroToMany;fontFamily=Verdana;fontSize=12;align=left;exitX=0.5;exitY=1;exitDx=0;exitDy=0;startFill=0;endFill=0;entryX=0.5;entryY=0;entryDx=0;entryDy=0;" parent="1" source="PYPsiDRyCnPlCEu5iL4S-112" target="PYPsiDRyCnPlCEu5iL4S-171" edge="1">
          <mxGeometry relative="1" as="geometry">
            <mxPoint x="460" y="191.5" as="sourcePoint" />
            <mxPoint x="460" y="278.5" as="targetPoint" />
          </mxGeometry>
        </mxCell>
        <mxCell id="uAxhGhGM27nR1Lqq1Pis-14" style="edgeStyle=orthogonalEdgeStyle;html=1;dashed=1;labelBackgroundColor=none;startArrow=ERone;endArrow=ERzeroToMany;fontFamily=Verdana;fontSize=12;align=left;startFill=0;endFill=0;entryX=0.5;entryY=1;entryDx=0;entryDy=0;exitX=0.5;exitY=0;exitDx=0;exitDy=0;" parent="1" source="PYPsiDRyCnPlCEu5iL4S-150" target="PYPsiDRyCnPlCEu5iL4S-127" edge="1">
          <mxGeometry relative="1" as="geometry">
            <mxPoint x="290" y="340" as="sourcePoint" />
            <mxPoint x="300" y="330" as="targetPoint" />
            <Array as="points">
              <mxPoint x="270" y="350" />
              <mxPoint x="270" y="350" />
            </Array>
          </mxGeometry>
        </mxCell>
        <mxCell id="uAxhGhGM27nR1Lqq1Pis-15" style="edgeStyle=orthogonalEdgeStyle;html=1;dashed=1;labelBackgroundColor=none;startArrow=ERzeroToMany;endArrow=ERone;fontFamily=Verdana;fontSize=12;align=left;entryX=1;entryY=0.5;entryDx=0;entryDy=0;startFill=0;endFill=0;" parent="1" source="uAxhGhGM27nR1Lqq1Pis-11" target="PYPsiDRyCnPlCEu5iL4S-112" edge="1">
          <mxGeometry relative="1" as="geometry">
            <mxPoint x="1030" y="134.76" as="sourcePoint" />
            <mxPoint x="930" y="54.75999999999999" as="targetPoint" />
          </mxGeometry>
        </mxCell>
        <mxCell id="uAxhGhGM27nR1Lqq1Pis-16" style="edgeStyle=orthogonalEdgeStyle;html=1;dashed=1;labelBackgroundColor=none;startArrow=ERone;endArrow=ERzeroToMany;fontFamily=Verdana;fontSize=12;align=left;startFill=0;endFill=0;entryX=0.5;entryY=1;entryDx=0;entryDy=0;exitX=0.5;exitY=0;exitDx=0;exitDy=0;" parent="1" source="PYPsiDRyCnPlCEu5iL4S-152" target="uAxhGhGM27nR1Lqq1Pis-11" edge="1">
          <mxGeometry relative="1" as="geometry">
            <mxPoint x="1049.88" y="450" as="sourcePoint" />
            <mxPoint x="1049.88" y="290" as="targetPoint" />
            <Array as="points" />
          </mxGeometry>
        </mxCell>
        <mxCell id="uAxhGhGM27nR1Lqq1Pis-17" style="edgeStyle=orthogonalEdgeStyle;html=1;dashed=1;labelBackgroundColor=none;startArrow=ERone;endArrow=ERzeroToMany;fontFamily=Verdana;fontSize=12;align=left;startFill=0;endFill=0;entryX=0.5;entryY=1;entryDx=0;entryDy=0;exitX=0.5;exitY=0;exitDx=0;exitDy=0;" parent="1" source="QZlLGX_LX9bqcIJWSxwp-5" target="PYPsiDRyCnPlCEu5iL4S-152" edge="1">
          <mxGeometry relative="1" as="geometry">
            <mxPoint x="1120" y="330" as="sourcePoint" />
            <mxPoint x="1040" y="319" as="targetPoint" />
            <Array as="points" />
          </mxGeometry>
        </mxCell>
        <mxCell id="uAxhGhGM27nR1Lqq1Pis-19" style="edgeStyle=orthogonalEdgeStyle;html=1;dashed=1;labelBackgroundColor=none;startArrow=ERone;endArrow=ERzeroToMany;fontFamily=Verdana;fontSize=12;align=left;startFill=0;endFill=0;entryX=0.5;entryY=0;entryDx=0;entryDy=0;exitX=0.5;exitY=1;exitDx=0;exitDy=0;" parent="1" source="QZlLGX_LX9bqcIJWSxwp-5" target="QZlLGX_LX9bqcIJWSxwp-2" edge="1">
          <mxGeometry relative="1" as="geometry">
            <mxPoint x="1250" y="494" as="sourcePoint" />
            <mxPoint x="1250" y="440" as="targetPoint" />
            <Array as="points" />
          </mxGeometry>
        </mxCell>
        <mxCell id="uAxhGhGM27nR1Lqq1Pis-21" style="edgeStyle=orthogonalEdgeStyle;html=1;dashed=1;labelBackgroundColor=none;startArrow=ERone;endArrow=ERzeroToMany;fontFamily=Verdana;fontSize=12;align=left;startFill=0;endFill=0;exitX=0;exitY=0.5;exitDx=0;exitDy=0;entryX=1;entryY=0.5;entryDx=0;entryDy=0;" parent="1" source="QZlLGX_LX9bqcIJWSxwp-4" target="QZlLGX_LX9bqcIJWSxwp-3" edge="1">
          <mxGeometry relative="1" as="geometry">
            <mxPoint x="1190" y="714" as="sourcePoint" />
            <mxPoint x="1190" y="720" as="targetPoint" />
            <Array as="points">
              <mxPoint x="1240" y="725" />
              <mxPoint x="1240" y="725" />
            </Array>
          </mxGeometry>
        </mxCell>
        <mxCell id="uAxhGhGM27nR1Lqq1Pis-23" style="edgeStyle=orthogonalEdgeStyle;html=1;dashed=1;labelBackgroundColor=none;startArrow=ERone;endArrow=ERmany;fontFamily=Verdana;fontSize=12;align=left;startFill=0;endFill=0;entryX=0.5;entryY=0;entryDx=0;entryDy=0;exitX=0.5;exitY=1;exitDx=0;exitDy=0;" parent="1" source="QZlLGX_LX9bqcIJWSxwp-2" target="QZlLGX_LX9bqcIJWSxwp-3" edge="1">
          <mxGeometry relative="1" as="geometry">
            <mxPoint x="1200" y="650" as="sourcePoint" />
            <mxPoint x="1120" y="680" as="targetPoint" />
            <Array as="points" />
          </mxGeometry>
        </mxCell>
        <mxCell id="uAxhGhGM27nR1Lqq1Pis-25" style="edgeStyle=orthogonalEdgeStyle;html=1;dashed=1;labelBackgroundColor=none;startArrow=ERone;endArrow=ERzeroToMany;fontFamily=Verdana;fontSize=12;align=left;startFill=0;endFill=0;exitX=0;exitY=0.5;exitDx=0;exitDy=0;entryX=1;entryY=0.5;entryDx=0;entryDy=0;" parent="1" source="QZlLGX_LX9bqcIJWSxwp-3" target="vA6MetqxZLyiD_9jzKIk-7" edge="1">
          <mxGeometry relative="1" as="geometry">
            <mxPoint x="925" y="795" as="sourcePoint" />
            <mxPoint x="910" y="800" as="targetPoint" />
            <Array as="points">
              <mxPoint x="910" y="725" />
              <mxPoint x="910" y="725" />
            </Array>
          </mxGeometry>
        </mxCell>
        <mxCell id="uAxhGhGM27nR1Lqq1Pis-33" value="Комбинации участков дорог" style="text;html=1;align=center;verticalAlign=middle;whiteSpace=wrap;rounded=0;" parent="1" vertex="1">
          <mxGeometry x="532.5" y="790" width="220" height="30" as="geometry" />
        </mxCell>
        <mxCell id="uAxhGhGM27nR1Lqq1Pis-34" value="" style="endArrow=none;dashed=1;html=1;dashPattern=1 3;strokeWidth=2;rounded=0;entryX=0.5;entryY=0;entryDx=0;entryDy=0;exitX=0.5;exitY=1;exitDx=0;exitDy=0;" parent="1" source="vA6MetqxZLyiD_9jzKIk-7" target="uAxhGhGM27nR1Lqq1Pis-33" edge="1">
          <mxGeometry width="50" height="50" relative="1" as="geometry">
            <mxPoint x="842.5" y="640" as="sourcePoint" />
            <mxPoint x="892.5" y="590" as="targetPoint" />
          </mxGeometry>
        </mxCell>
        <mxCell id="uAxhGhGM27nR1Lqq1Pis-35" value="Имеет" style="text;html=1;align=center;verticalAlign=middle;whiteSpace=wrap;rounded=0;" parent="1" vertex="1">
          <mxGeometry x="300" y="-850" width="60" height="30" as="geometry" />
        </mxCell>
        <mxCell id="uAxhGhGM27nR1Lqq1Pis-36" value="Бывает вида" style="text;html=1;align=center;verticalAlign=middle;whiteSpace=wrap;rounded=0;" parent="1" vertex="1">
          <mxGeometry x="230" y="-670" width="60" height="30" as="geometry" />
        </mxCell>
        <mxCell id="uAxhGhGM27nR1Lqq1Pis-37" value="Имеет" style="text;html=1;align=center;verticalAlign=middle;whiteSpace=wrap;rounded=0;" parent="1" vertex="1">
          <mxGeometry x="545" y="-850" width="60" height="30" as="geometry" />
        </mxCell>
        <mxCell id="uAxhGhGM27nR1Lqq1Pis-38" value="Имеет" style="text;html=1;align=center;verticalAlign=middle;whiteSpace=wrap;rounded=0;" parent="1" vertex="1">
          <mxGeometry x="450" y="-780" width="60" height="30" as="geometry" />
        </mxCell>
        <mxCell id="uAxhGhGM27nR1Lqq1Pis-39" value="Бывает вида" style="text;html=1;align=center;verticalAlign=middle;whiteSpace=wrap;rounded=0;" parent="1" vertex="1">
          <mxGeometry x="550" y="-670" width="60" height="30" as="geometry" />
        </mxCell>
        <mxCell id="uAxhGhGM27nR1Lqq1Pis-40" value="Состоит из" style="text;html=1;align=center;verticalAlign=middle;whiteSpace=wrap;rounded=0;" parent="1" vertex="1">
          <mxGeometry x="880" y="-740" width="70" height="30" as="geometry" />
        </mxCell>
        <mxCell id="uAxhGhGM27nR1Lqq1Pis-41" value="Принадлежит" style="text;html=1;align=center;verticalAlign=middle;whiteSpace=wrap;rounded=0;" parent="1" vertex="1">
          <mxGeometry x="860" y="-710" width="110" height="30" as="geometry" />
        </mxCell>
        <mxCell id="uAxhGhGM27nR1Lqq1Pis-46" value="&lt;div style=&quot;box-sizing:border-box;width:100%;background:#e4e4e4;padding:2px;&quot;&gt;&lt;span style=&quot;font-family: Helvetica; text-align: center; text-wrap-mode: wrap; background-color: rgb(251, 251, 251);&quot;&gt;user&lt;/span&gt;&lt;/div&gt;&lt;table style=&quot;width:100%;font-size:1em;&quot; cellpadding=&quot;2&quot; cellspacing=&quot;0&quot;&gt;&lt;tbody&gt;&lt;tr&gt;&lt;td&gt;user_id&lt;/td&gt;&lt;td&gt;Числовой&lt;/td&gt;&lt;td&gt;обяз.&lt;/td&gt;&lt;td&gt;-&lt;/td&gt;&lt;/tr&gt;&lt;tr&gt;&lt;td&gt;email&lt;/td&gt;&lt;td&gt;Текстовый&lt;/td&gt;&lt;td&gt;обяз.&lt;/td&gt;&lt;td&gt;-&lt;/td&gt;&lt;/tr&gt;&lt;tr&gt;&lt;td&gt;password&lt;/td&gt;&lt;td&gt;Текстовый&lt;/td&gt;&lt;td&gt;обяз.&lt;/td&gt;&lt;td&gt;-&lt;/td&gt;&lt;/tr&gt;&lt;tr&gt;&lt;td&gt;verification_flag&lt;/td&gt;&lt;td&gt;Логический&lt;/td&gt;&lt;td&gt;необяз.&lt;/td&gt;&lt;td&gt;false&lt;/td&gt;&lt;/tr&gt;&lt;tr&gt;&lt;td&gt;phone_number&lt;/td&gt;&lt;td&gt;Текстовый&lt;/td&gt;&lt;td&gt;необяз.&lt;/td&gt;&lt;td&gt;-&lt;/td&gt;&lt;/tr&gt;&lt;/tbody&gt;&lt;/table&gt;" style="verticalAlign=top;align=left;overflow=fill;html=1;rounded=0;shadow=0;comic=0;labelBackgroundColor=none;strokeWidth=1;fontFamily=Verdana;fontSize=12" parent="1" vertex="1">
          <mxGeometry x="1510" y="-855" width="330" height="110" as="geometry" />
        </mxCell>
        <mxCell id="uAxhGhGM27nR1Lqq1Pis-47" value="&lt;div style=&quot;box-sizing: border-box ; width: 100% ; background: #e4e4e4 ; padding: 2px&quot;&gt;&lt;span style=&quot;font-family: Helvetica; text-align: center; text-wrap-mode: wrap; background-color: rgb(255, 255, 255);&quot;&gt;vehicle&lt;/span&gt;&lt;/div&gt;&lt;table style=&quot;width: 100% ; font-size: 1em&quot; cellpadding=&quot;2&quot; cellspacing=&quot;0&quot;&gt;&lt;tbody&gt;&lt;tr&gt;&lt;td&gt;&lt;span style=&quot;text-wrap-mode: wrap; font-family: Helvetica; text-align: center; background-color: rgb(255, 255, 255);&quot;&gt;vehicle_i&lt;/span&gt;d&lt;/td&gt;&lt;td&gt;Числовой&lt;/td&gt;&lt;td&gt;обяз.&lt;/td&gt;&lt;td&gt;-&lt;/td&gt;&lt;/tr&gt;&lt;tr&gt;&lt;td&gt;user_id&lt;/td&gt;&lt;td&gt;Числовой&lt;/td&gt;&lt;td&gt;обяз.&lt;/td&gt;&lt;td&gt;-&lt;/td&gt;&lt;/tr&gt;&lt;tr&gt;&lt;td&gt;vehicle_category_id&lt;/td&gt;&lt;td&gt;Числовой&lt;/td&gt;&lt;td&gt;обяз.&lt;/td&gt;&lt;td&gt;-&lt;/td&gt;&lt;/tr&gt;&lt;tr&gt;&lt;td&gt;vehicle_number&lt;br&gt;&lt;/td&gt;&lt;td&gt;Текстовый&lt;/td&gt;&lt;td&gt;обяз.&lt;/td&gt;&lt;td&gt;-&lt;/td&gt;&lt;/tr&gt;&lt;tr&gt;&lt;td&gt;non-standard_vehicle_number&lt;/td&gt;&lt;td&gt;Логический&lt;/td&gt;&lt;td&gt;обяз.&lt;/td&gt;&lt;td&gt;false&lt;/td&gt;&lt;/tr&gt;&lt;/tbody&gt;&lt;/table&gt;" style="verticalAlign=top;align=left;overflow=fill;html=1;rounded=0;shadow=0;comic=0;labelBackgroundColor=none;strokeWidth=1;fontFamily=Verdana;fontSize=12" parent="1" vertex="1">
          <mxGeometry x="1270" y="-695" width="360" height="120" as="geometry" />
        </mxCell>
        <mxCell id="uAxhGhGM27nR1Lqq1Pis-48" value="&lt;div style=&quot;box-sizing:border-box;width:100%;background:#e4e4e4;padding:2px;&quot;&gt;&lt;span style=&quot;font-family: Helvetica; text-align: center; text-wrap-mode: wrap; background-color: rgb(255, 255, 255);&quot;&gt;vehicle_category&lt;/span&gt;&lt;/div&gt;&lt;table style=&quot;width:100%;font-size:1em;&quot; cellpadding=&quot;2&quot; cellspacing=&quot;0&quot;&gt;&lt;tbody&gt;&lt;tr&gt;&lt;td&gt;vehicle_category_id&lt;/td&gt;&lt;td&gt;Числовой&lt;/td&gt;&lt;td&gt;обяз.&lt;/td&gt;&lt;td&gt;-&lt;/td&gt;&lt;/tr&gt;&lt;tr&gt;&lt;td&gt;vehicle_category_description&lt;/td&gt;&lt;td&gt;Текстовый&lt;/td&gt;&lt;td&gt;необяз.&lt;/td&gt;&lt;td&gt;-&lt;/td&gt;&lt;/tr&gt;&lt;tr&gt;&lt;td&gt;image&lt;/td&gt;&lt;td&gt;Текстовый&lt;/td&gt;&lt;td&gt;необяз.&lt;/td&gt;&lt;td&gt;-&lt;/td&gt;&lt;/tr&gt;&lt;/tbody&gt;&lt;/table&gt;" style="verticalAlign=top;align=left;overflow=fill;html=1;rounded=0;shadow=0;comic=0;labelBackgroundColor=none;strokeWidth=1;fontFamily=Verdana;fontSize=12" parent="1" vertex="1">
          <mxGeometry x="1265" y="-535" width="370" height="80" as="geometry" />
        </mxCell>
        <mxCell id="uAxhGhGM27nR1Lqq1Pis-49" value="&lt;div style=&quot;box-sizing:border-box;width:100%;background:#e4e4e4;padding:2px;&quot;&gt;&lt;span style=&quot;font-family: Helvetica; text-align: center; text-wrap-mode: wrap; background-color: rgb(251, 251, 251);&quot;&gt;transponder_type&lt;/span&gt;&lt;/div&gt;&lt;table style=&quot;width:100%;font-size:1em;&quot; cellpadding=&quot;2&quot; cellspacing=&quot;0&quot;&gt;&lt;tbody&gt;&lt;tr&gt;&lt;td&gt;transponder_type_id&lt;/td&gt;&lt;td&gt;Числовой&lt;/td&gt;&lt;td&gt;обяз.&lt;/td&gt;&lt;td&gt;-&lt;/td&gt;&lt;/tr&gt;&lt;tr&gt;&lt;td&gt;transponder_name&lt;/td&gt;&lt;td&gt;Текстовый&lt;/td&gt;&lt;td&gt;обяз.&lt;/td&gt;&lt;td&gt;-&lt;/td&gt;&lt;/tr&gt;&lt;tr&gt;&lt;td&gt;company_id&lt;/td&gt;&lt;td&gt;Числовой&lt;/td&gt;&lt;td&gt;обяз.&lt;/td&gt;&lt;td&gt;-&lt;/td&gt;&lt;/tr&gt;&lt;tr&gt;&lt;td&gt;image&lt;/td&gt;&lt;td&gt;Текстовый&lt;/td&gt;&lt;td&gt;необяз.&lt;/td&gt;&lt;td&gt;-&lt;/td&gt;&lt;/tr&gt;&lt;/tbody&gt;&lt;/table&gt;" style="verticalAlign=top;align=left;overflow=fill;html=1;rounded=0;shadow=0;comic=0;labelBackgroundColor=none;strokeWidth=1;fontFamily=Verdana;fontSize=12" parent="1" vertex="1">
          <mxGeometry x="2090" y="-695" width="280" height="100" as="geometry" />
        </mxCell>
        <mxCell id="uAxhGhGM27nR1Lqq1Pis-50" value="&lt;div style=&quot;box-sizing: border-box ; width: 100% ; background: #e4e4e4 ; padding: 2px&quot;&gt;&lt;span style=&quot;font-family: Helvetica; text-align: center; text-wrap-mode: wrap; background-color: rgb(251, 251, 251);&quot;&gt;payment&lt;/span&gt;&lt;/div&gt;&lt;table style=&quot;width: 100% ; font-size: 1em&quot; cellpadding=&quot;2&quot; cellspacing=&quot;0&quot;&gt;&lt;tbody&gt;&lt;tr&gt;&lt;td&gt;card_id&lt;/td&gt;&lt;td&gt;Числовой&lt;/td&gt;&lt;td&gt;обяз.&lt;/td&gt;&lt;td&gt;-&lt;/td&gt;&lt;/tr&gt;&lt;tr&gt;&lt;td&gt;user_id&lt;/td&gt;&lt;td&gt;Числовой&lt;/td&gt;&lt;td&gt;обяз.&lt;/td&gt;&lt;td&gt;-&lt;/td&gt;&lt;/tr&gt;&lt;tr&gt;&lt;td&gt;card_number&lt;/td&gt;&lt;td&gt;Текстовый&lt;/td&gt;&lt;td&gt;обяз.&lt;/td&gt;&lt;td&gt;-&lt;/td&gt;&lt;/tr&gt;&lt;tr&gt;&lt;td&gt;validity_period&lt;/td&gt;&lt;td&gt;Числовой&lt;/td&gt;&lt;td&gt;обяз.&lt;/td&gt;&lt;td&gt;-&lt;/td&gt;&lt;/tr&gt;&lt;tr&gt;&lt;td&gt;cvv&lt;br&gt;&lt;/td&gt;&lt;td&gt;Текстовый&lt;/td&gt;&lt;td&gt;обяз.&lt;/td&gt;&lt;td&gt;-&lt;/td&gt;&lt;/tr&gt;&lt;/tbody&gt;&lt;/table&gt;" style="verticalAlign=top;align=left;overflow=fill;html=1;rounded=0;shadow=0;comic=0;labelBackgroundColor=none;strokeWidth=1;fontFamily=Verdana;fontSize=12" parent="1" vertex="1">
          <mxGeometry x="1680" y="-695" width="270" height="120" as="geometry" />
        </mxCell>
        <mxCell id="uAxhGhGM27nR1Lqq1Pis-51" value="&lt;div style=&quot;box-sizing: border-box ; width: 100% ; background: #e4e4e4 ; padding: 2px&quot;&gt;&lt;span style=&quot;font-family: Helvetica; text-align: center; text-wrap-mode: wrap; background-color: rgb(255, 255, 255);&quot;&gt;road&lt;/span&gt;&lt;/div&gt;&lt;table style=&quot;width: 100% ; font-size: 1em&quot; cellpadding=&quot;2&quot; cellspacing=&quot;0&quot;&gt;&lt;tbody&gt;&lt;tr style=&quot;font-size: 13px;&quot;&gt;&lt;td&gt;&lt;span style=&quot;text-wrap-mode: wrap; font-family: Helvetica; text-align: center; background-color: rgb(255, 255, 255);&quot;&gt;road_i&lt;/span&gt;d&lt;/td&gt;&lt;td&gt;Числовой&lt;/td&gt;&lt;td&gt;&lt;span style=&quot;font-size: 12px;&quot;&gt;обяз.&lt;/span&gt;&lt;/td&gt;&lt;td&gt;-&lt;/td&gt;&lt;/tr&gt;&lt;tr&gt;&lt;td&gt;road_full_name&lt;/td&gt;&lt;td&gt;Текстовый&lt;/td&gt;&lt;td&gt;обяз.&lt;/td&gt;&lt;td&gt;-&lt;/td&gt;&lt;/tr&gt;&lt;tr&gt;&lt;td&gt;road_short_name&lt;/td&gt;&lt;td&gt;Текстовый&lt;/td&gt;&lt;td&gt;необяз.&lt;/td&gt;&lt;td&gt;-&lt;/td&gt;&lt;/tr&gt;&lt;tr&gt;&lt;td&gt;start_location&lt;/td&gt;&lt;td&gt;Числовой&lt;/td&gt;&lt;td&gt;обяз.&lt;/td&gt;&lt;td&gt;-&lt;/td&gt;&lt;/tr&gt;&lt;tr&gt;&lt;td&gt;end_location&lt;br&gt;&lt;/td&gt;&lt;td&gt;Числовой&lt;/td&gt;&lt;td&gt;обяз.&lt;/td&gt;&lt;td&gt;-&lt;/td&gt;&lt;/tr&gt;&lt;tr&gt;&lt;td&gt;company_id&lt;/td&gt;&lt;td&gt;Числовой&lt;/td&gt;&lt;td&gt;обяз.&lt;/td&gt;&lt;td&gt;-&lt;/td&gt;&lt;/tr&gt;&lt;/tbody&gt;&lt;/table&gt;" style="verticalAlign=top;align=left;overflow=fill;html=1;rounded=0;shadow=0;comic=0;labelBackgroundColor=none;strokeWidth=1;fontFamily=Verdana;fontSize=12" parent="1" vertex="1">
          <mxGeometry x="2090" y="-445" width="280" height="140" as="geometry" />
        </mxCell>
        <mxCell id="uAxhGhGM27nR1Lqq1Pis-52" value="&lt;div style=&quot;box-sizing: border-box ; width: 100% ; background: #e4e4e4 ; padding: 2px&quot;&gt;&lt;span style=&quot;font-family: Helvetica; text-align: center; text-wrap-mode: wrap; background-color: rgb(255, 255, 255);&quot;&gt;location&lt;/span&gt;&lt;/div&gt;&lt;table style=&quot;width: 100% ; font-size: 1em&quot; cellpadding=&quot;2&quot; cellspacing=&quot;0&quot;&gt;&lt;tbody&gt;&lt;tr style=&quot;font-size: 13px;&quot;&gt;&lt;td&gt;&lt;span style=&quot;text-wrap-mode: wrap; font-family: Helvetica; text-align: center; background-color: rgb(255, 255, 255);&quot;&gt;location_i&lt;/span&gt;d&lt;/td&gt;&lt;td&gt;Числовой&lt;/td&gt;&lt;td&gt;&lt;span style=&quot;font-size: 12px;&quot;&gt;обяз.&lt;/span&gt;&lt;/td&gt;&lt;td&gt;-&lt;/td&gt;&lt;/tr&gt;&lt;tr&gt;&lt;td&gt;road_id&lt;/td&gt;&lt;td&gt;Числовой&lt;/td&gt;&lt;td&gt;обяз.&lt;/td&gt;&lt;td&gt;-&lt;/td&gt;&lt;/tr&gt;&lt;tr&gt;&lt;td&gt;city_id&lt;/td&gt;&lt;td&gt;Числовой&lt;/td&gt;&lt;td&gt;необяз.&lt;/td&gt;&lt;td&gt;-&lt;/td&gt;&lt;/tr&gt;&lt;tr&gt;&lt;td&gt;&lt;span style=&quot;font-family: Helvetica; font-size: 13px; text-align: center; text-wrap-mode: wrap; background-color: rgb(255, 255, 255);&quot;&gt;location_name&lt;/span&gt;&lt;/td&gt;&lt;td&gt;Текстовый&lt;/td&gt;&lt;td&gt;обяз.&lt;/td&gt;&lt;td&gt;-&lt;/td&gt;&lt;/tr&gt;&lt;tr&gt;&lt;td&gt;description&lt;/td&gt;&lt;td&gt;Текстовый&lt;/td&gt;&lt;td&gt;необяз.&lt;/td&gt;&lt;td&gt;-&lt;/td&gt;&lt;/tr&gt;&lt;tr&gt;&lt;td&gt;km_of_road&lt;/td&gt;&lt;td&gt;Числовой&lt;/td&gt;&lt;td&gt;необяз.&lt;/td&gt;&lt;td&gt;-&lt;/td&gt;&lt;/tr&gt;&lt;tr&gt;&lt;td&gt;latitude&lt;/td&gt;&lt;td&gt;Числовой&lt;/td&gt;&lt;td&gt;обяз.&lt;/td&gt;&lt;td&gt;-&lt;/td&gt;&lt;/tr&gt;&lt;tr&gt;&lt;td&gt;longitude&lt;/td&gt;&lt;td&gt;Числовой&lt;/td&gt;&lt;td&gt;обяз.&lt;/td&gt;&lt;td&gt;-&lt;/td&gt;&lt;/tr&gt;&lt;tr&gt;&lt;td&gt;PVP&lt;/td&gt;&lt;td&gt;Логический&lt;/td&gt;&lt;td&gt;обяз.&lt;/td&gt;&lt;td&gt;false&lt;/td&gt;&lt;/tr&gt;&lt;/tbody&gt;&lt;/table&gt;" style="verticalAlign=top;align=left;overflow=fill;html=1;rounded=0;shadow=0;comic=0;labelBackgroundColor=none;strokeWidth=1;fontFamily=Verdana;fontSize=12" parent="1" vertex="1">
          <mxGeometry x="2092.5" y="-265" width="275" height="190" as="geometry" />
        </mxCell>
        <mxCell id="uAxhGhGM27nR1Lqq1Pis-53" value="&lt;div style=&quot;box-sizing: border-box ; width: 100% ; background: #e4e4e4 ; padding: 2px&quot;&gt;&lt;span style=&quot;font-family: Helvetica; text-align: center; text-wrap-mode: wrap; background-color: rgb(255, 255, 255);&quot;&gt;city&lt;/span&gt;&lt;/div&gt;&lt;table style=&quot;width: 100% ; font-size: 1em&quot; cellpadding=&quot;2&quot; cellspacing=&quot;0&quot;&gt;&lt;tbody&gt;&lt;tr&gt;&lt;td&gt;&lt;span style=&quot;text-wrap-mode: wrap; font-family: Helvetica; text-align: center; background-color: rgb(255, 255, 255);&quot;&gt;city_i&lt;/span&gt;d&lt;/td&gt;&lt;td&gt;Числовой&lt;/td&gt;&lt;td&gt;обяз.&lt;/td&gt;&lt;td&gt;-&lt;/td&gt;&lt;/tr&gt;&lt;tr&gt;&lt;td&gt;name&lt;/td&gt;&lt;td&gt;Текстовый&lt;/td&gt;&lt;td&gt;обяз.&lt;/td&gt;&lt;td&gt;-&lt;/td&gt;&lt;/tr&gt;&lt;/tbody&gt;&lt;/table&gt;" style="verticalAlign=top;align=left;overflow=fill;html=1;rounded=0;shadow=0;comic=0;labelBackgroundColor=none;strokeWidth=1;fontFamily=Verdana;fontSize=12" parent="1" vertex="1">
          <mxGeometry x="2425" y="-205" width="175" height="70" as="geometry" />
        </mxCell>
        <mxCell id="uAxhGhGM27nR1Lqq1Pis-54" value="&lt;div style=&quot;box-sizing:border-box;width:100%;background:#e4e4e4;padding:2px;&quot;&gt;&lt;span style=&quot;font-family: Helvetica; text-align: center; text-wrap-mode: wrap; background-color: rgb(251, 251, 251);&quot;&gt;company&lt;/span&gt;&lt;/div&gt;&lt;table style=&quot;width:100%;font-size:1em;&quot; cellpadding=&quot;2&quot; cellspacing=&quot;0&quot;&gt;&lt;tbody&gt;&lt;tr&gt;&lt;td&gt;company_id&lt;/td&gt;&lt;td&gt;Числовой&lt;/td&gt;&lt;td&gt;обяз.&lt;/td&gt;&lt;td&gt;-&lt;/td&gt;&lt;/tr&gt;&lt;tr&gt;&lt;td&gt;company_full_name&lt;br&gt;&lt;/td&gt;&lt;td&gt;Текстовый&lt;/td&gt;&lt;td&gt;обяз.&lt;/td&gt;&lt;td&gt;-&lt;/td&gt;&lt;/tr&gt;&lt;tr&gt;&lt;td&gt;company_short_name&lt;br&gt;&lt;/td&gt;&lt;td&gt;Текстовый&lt;/td&gt;&lt;td&gt;необяз.&lt;/td&gt;&lt;td&gt;-&lt;/td&gt;&lt;/tr&gt;&lt;/tbody&gt;&lt;/table&gt;" style="verticalAlign=top;align=left;overflow=fill;html=1;rounded=0;shadow=0;comic=0;labelBackgroundColor=none;strokeWidth=1;fontFamily=Verdana;fontSize=12" parent="1" vertex="1">
          <mxGeometry x="2085" y="-565" width="290" height="86" as="geometry" />
        </mxCell>
        <mxCell id="uAxhGhGM27nR1Lqq1Pis-55" value="Государственный регистрационный номер" style="text;html=1;align=left;verticalAlign=middle;whiteSpace=wrap;rounded=0;" parent="1" vertex="1">
          <mxGeometry x="1130" y="-635" width="100" height="60" as="geometry" />
        </mxCell>
        <mxCell id="uAxhGhGM27nR1Lqq1Pis-56" value="" style="endArrow=none;dashed=1;html=1;dashPattern=1 3;strokeWidth=2;rounded=0;exitX=1;exitY=0.5;exitDx=0;exitDy=0;entryX=0;entryY=0.75;entryDx=0;entryDy=0;" parent="1" source="uAxhGhGM27nR1Lqq1Pis-55" target="uAxhGhGM27nR1Lqq1Pis-47" edge="1">
          <mxGeometry width="50" height="50" relative="1" as="geometry">
            <mxPoint x="1220" y="-625" as="sourcePoint" />
            <mxPoint x="1270" y="-735" as="targetPoint" />
          </mxGeometry>
        </mxCell>
        <mxCell id="uAxhGhGM27nR1Lqq1Pis-57" value="Номер лицевого счета&lt;div&gt;&lt;br&gt;&lt;div&gt;PAN-номер транспондера&lt;/div&gt;&lt;/div&gt;" style="text;html=1;align=left;verticalAlign=middle;whiteSpace=wrap;rounded=0;" parent="1" vertex="1">
          <mxGeometry x="2460" y="-790" width="110" height="80" as="geometry" />
        </mxCell>
        <mxCell id="uAxhGhGM27nR1Lqq1Pis-58" value="" style="endArrow=none;dashed=1;html=1;dashPattern=1 3;strokeWidth=2;rounded=0;exitX=0;exitY=0.5;exitDx=0;exitDy=0;entryX=1;entryY=0.75;entryDx=0;entryDy=0;" parent="1" source="uAxhGhGM27nR1Lqq1Pis-57" target="uAxhGhGM27nR1Lqq1Pis-65" edge="1">
          <mxGeometry width="50" height="50" relative="1" as="geometry">
            <mxPoint x="2190" y="-845" as="sourcePoint" />
            <mxPoint x="2335" y="-625" as="targetPoint" />
          </mxGeometry>
        </mxCell>
        <mxCell id="uAxhGhGM27nR1Lqq1Pis-59" value="Возможно, стоит добавить тип &quot;Любой&quot;&lt;div&gt;(актуально для расчета)&lt;/div&gt;" style="text;html=1;align=left;verticalAlign=middle;whiteSpace=wrap;rounded=0;" parent="1" vertex="1">
          <mxGeometry x="1130" y="-435" width="145" height="60" as="geometry" />
        </mxCell>
        <mxCell id="uAxhGhGM27nR1Lqq1Pis-60" value="" style="endArrow=none;dashed=1;html=1;dashPattern=1 3;strokeWidth=2;rounded=0;exitX=0.25;exitY=0;exitDx=0;exitDy=0;entryX=0.005;entryY=0.559;entryDx=0;entryDy=0;entryPerimeter=0;" parent="1" source="uAxhGhGM27nR1Lqq1Pis-59" target="uAxhGhGM27nR1Lqq1Pis-48" edge="1">
          <mxGeometry width="50" height="50" relative="1" as="geometry">
            <mxPoint x="1270" y="-375" as="sourcePoint" />
            <mxPoint x="1320" y="-425" as="targetPoint" />
          </mxGeometry>
        </mxCell>
        <mxCell id="uAxhGhGM27nR1Lqq1Pis-61" value="&lt;div style=&quot;box-sizing: border-box; width: 100%; background: rgb(228, 228, 228); padding: 2px;&quot;&gt;&lt;font face=&quot;Helvetica&quot;&gt;&lt;span style=&quot;text-wrap-mode: wrap;&quot;&gt;from_where&lt;/span&gt;&lt;/font&gt;&lt;/div&gt;&lt;table style=&quot;width: 100% ; font-size: 1em&quot; cellpadding=&quot;2&quot; cellspacing=&quot;0&quot;&gt;&lt;tbody&gt;&lt;tr&gt;&lt;td&gt;from_where&lt;/td&gt;&lt;td&gt;Числовой&lt;/td&gt;&lt;td&gt;обяз.&lt;/td&gt;&lt;td&gt;-&lt;/td&gt;&lt;/tr&gt;&lt;tr&gt;&lt;td&gt;start_location&lt;/td&gt;&lt;td&gt;Числовой&lt;/td&gt;&lt;td&gt;обяз.&lt;/td&gt;&lt;td&gt;-&lt;/td&gt;&lt;/tr&gt;&lt;tr&gt;&lt;td&gt;end_location&lt;/td&gt;&lt;td&gt;Числовой&lt;/td&gt;&lt;td&gt;обяз.&lt;/td&gt;&lt;td&gt;-&lt;/td&gt;&lt;/tr&gt;&lt;tr&gt;&lt;td&gt;image&lt;/td&gt;&lt;td&gt;Текстовое&lt;/td&gt;&lt;td&gt;необяз.&lt;/td&gt;&lt;td&gt;-&lt;/td&gt;&lt;/tr&gt;&lt;/tbody&gt;&lt;/table&gt;" style="verticalAlign=top;align=left;overflow=fill;html=1;rounded=0;shadow=0;comic=0;labelBackgroundColor=none;strokeWidth=1;fontFamily=Verdana;fontSize=12" parent="1" vertex="1">
          <mxGeometry x="1744.5" y="-217.5" width="235" height="95" as="geometry" />
        </mxCell>
        <mxCell id="uAxhGhGM27nR1Lqq1Pis-62" value="Пароли, данные карт должны хранится в зашифрованном виде" style="text;html=1;align=left;verticalAlign=middle;whiteSpace=wrap;rounded=0;" parent="1" vertex="1">
          <mxGeometry x="1860" y="-775" width="130" height="50" as="geometry" />
        </mxCell>
        <mxCell id="uAxhGhGM27nR1Lqq1Pis-63" value="" style="endArrow=none;dashed=1;html=1;dashPattern=1 3;strokeWidth=2;rounded=0;entryX=0;entryY=0.5;entryDx=0;entryDy=0;exitX=1;exitY=0.75;exitDx=0;exitDy=0;" parent="1" source="uAxhGhGM27nR1Lqq1Pis-46" target="uAxhGhGM27nR1Lqq1Pis-62" edge="1">
          <mxGeometry width="50" height="50" relative="1" as="geometry">
            <mxPoint x="1860" y="-795" as="sourcePoint" />
            <mxPoint x="1910" y="-845" as="targetPoint" />
          </mxGeometry>
        </mxCell>
        <mxCell id="uAxhGhGM27nR1Lqq1Pis-64" value="" style="endArrow=none;dashed=1;html=1;dashPattern=1 3;strokeWidth=2;rounded=0;entryX=0;entryY=0.75;entryDx=0;entryDy=0;exitX=0.75;exitY=0;exitDx=0;exitDy=0;" parent="1" source="uAxhGhGM27nR1Lqq1Pis-50" target="uAxhGhGM27nR1Lqq1Pis-62" edge="1">
          <mxGeometry width="50" height="50" relative="1" as="geometry">
            <mxPoint x="1780" y="-685" as="sourcePoint" />
            <mxPoint x="1830" y="-735" as="targetPoint" />
          </mxGeometry>
        </mxCell>
        <mxCell id="uAxhGhGM27nR1Lqq1Pis-65" value="&lt;div style=&quot;box-sizing: border-box ; width: 100% ; background: #e4e4e4 ; padding: 2px&quot;&gt;&lt;span style=&quot;font-family: Helvetica; text-align: center; text-wrap-mode: wrap;&quot;&gt;transponder&lt;/span&gt;&lt;/div&gt;&lt;table style=&quot;width: 100% ; font-size: 1em&quot; cellpadding=&quot;2&quot; cellspacing=&quot;0&quot;&gt;&lt;tbody&gt;&lt;tr style=&quot;font-size: 13px;&quot;&gt;&lt;td&gt;&lt;span style=&quot;font-size: 12px;&quot;&gt;transponder&lt;/span&gt;&lt;span style=&quot;text-wrap-mode: wrap; font-family: Helvetica; text-align: center; background-color: rgb(255, 255, 255);&quot;&gt;_i&lt;/span&gt;d&lt;/td&gt;&lt;td&gt;Числовой&lt;/td&gt;&lt;td&gt;&lt;span style=&quot;font-size: 12px;&quot;&gt;обяз.&lt;/span&gt;&lt;/td&gt;&lt;td&gt;&lt;br&gt;&lt;/td&gt;&lt;/tr&gt;&lt;tr&gt;&lt;td&gt;user_id&lt;/td&gt;&lt;td&gt;&lt;span style=&quot;font-size: 13px;&quot;&gt;Числовой&lt;/span&gt;&lt;/td&gt;&lt;td&gt;обяз.&lt;/td&gt;&lt;td&gt;&lt;br&gt;&lt;/td&gt;&lt;/tr&gt;&lt;tr&gt;&lt;td&gt;transponder_type_id&lt;/td&gt;&lt;td&gt;&lt;span style=&quot;font-size: 13px;&quot;&gt;Числовой&lt;/span&gt;&lt;/td&gt;&lt;td&gt;обяз.&lt;/td&gt;&lt;td&gt;&lt;br&gt;&lt;/td&gt;&lt;/tr&gt;&lt;tr&gt;&lt;td&gt;transponder_personal_account&lt;/td&gt;&lt;td&gt;Числовой&lt;/td&gt;&lt;td&gt;необяз.&lt;/td&gt;&lt;td&gt;&lt;br&gt;&lt;/td&gt;&lt;/tr&gt;&lt;tr&gt;&lt;td&gt;PAN&lt;/td&gt;&lt;td&gt;Числовой&lt;/td&gt;&lt;td&gt;необяз.&lt;/td&gt;&lt;td&gt;&lt;br&gt;&lt;/td&gt;&lt;/tr&gt;&lt;tr&gt;&lt;td&gt;interoperability&lt;/td&gt;&lt;td&gt;Логический&lt;/td&gt;&lt;td&gt;необяз.&lt;/td&gt;&lt;td&gt;true&lt;/td&gt;&lt;/tr&gt;&lt;/tbody&gt;&lt;/table&gt;" style="verticalAlign=top;align=left;overflow=fill;html=1;rounded=0;shadow=0;comic=0;labelBackgroundColor=none;strokeWidth=1;fontFamily=Verdana;fontSize=12" parent="1" vertex="1">
          <mxGeometry x="2045" y="-870" width="370" height="140" as="geometry" />
        </mxCell>
        <mxCell id="uAxhGhGM27nR1Lqq1Pis-66" style="edgeStyle=orthogonalEdgeStyle;html=1;dashed=1;labelBackgroundColor=none;startArrow=ERone;endArrow=ERzeroToOne;fontFamily=Verdana;fontSize=12;align=left;exitX=0;exitY=0.5;exitDx=0;exitDy=0;entryX=0.5;entryY=0;entryDx=0;entryDy=0;startFill=0;endFill=0;" parent="1" source="uAxhGhGM27nR1Lqq1Pis-46" target="uAxhGhGM27nR1Lqq1Pis-47" edge="1">
          <mxGeometry relative="1" as="geometry">
            <mxPoint x="1530" y="-795" as="sourcePoint" />
            <mxPoint x="1430" y="-715" as="targetPoint" />
            <Array as="points">
              <mxPoint x="1450" y="-800" />
            </Array>
          </mxGeometry>
        </mxCell>
        <mxCell id="uAxhGhGM27nR1Lqq1Pis-67" style="edgeStyle=orthogonalEdgeStyle;html=1;dashed=1;labelBackgroundColor=none;startArrow=ERone;endArrow=ERzeroToMany;fontFamily=Verdana;fontSize=12;align=left;exitX=0.5;exitY=1;exitDx=0;exitDy=0;startFill=0;endFill=0;entryX=0.5;entryY=0;entryDx=0;entryDy=0;" parent="1" source="uAxhGhGM27nR1Lqq1Pis-46" target="uAxhGhGM27nR1Lqq1Pis-50" edge="1">
          <mxGeometry relative="1" as="geometry">
            <mxPoint x="1640" y="-703.5" as="sourcePoint" />
            <mxPoint x="1640" y="-616.5" as="targetPoint" />
          </mxGeometry>
        </mxCell>
        <mxCell id="uAxhGhGM27nR1Lqq1Pis-68" style="edgeStyle=orthogonalEdgeStyle;html=1;dashed=1;labelBackgroundColor=none;startArrow=ERone;endArrow=ERzeroToMany;fontFamily=Verdana;fontSize=12;align=left;startFill=0;endFill=0;entryX=0.5;entryY=1;entryDx=0;entryDy=0;exitX=0.5;exitY=0;exitDx=0;exitDy=0;" parent="1" source="uAxhGhGM27nR1Lqq1Pis-48" target="uAxhGhGM27nR1Lqq1Pis-47" edge="1">
          <mxGeometry relative="1" as="geometry">
            <mxPoint x="1470" y="-555" as="sourcePoint" />
            <mxPoint x="1480" y="-565" as="targetPoint" />
            <Array as="points">
              <mxPoint x="1450" y="-545" />
              <mxPoint x="1450" y="-545" />
            </Array>
          </mxGeometry>
        </mxCell>
        <mxCell id="uAxhGhGM27nR1Lqq1Pis-69" style="edgeStyle=orthogonalEdgeStyle;html=1;dashed=1;labelBackgroundColor=none;startArrow=ERzeroToMany;endArrow=ERone;fontFamily=Verdana;fontSize=12;align=left;entryX=1;entryY=0.5;entryDx=0;entryDy=0;startFill=0;endFill=0;" parent="1" source="uAxhGhGM27nR1Lqq1Pis-65" target="uAxhGhGM27nR1Lqq1Pis-46" edge="1">
          <mxGeometry relative="1" as="geometry">
            <mxPoint x="2210" y="-760.24" as="sourcePoint" />
            <mxPoint x="2110" y="-840.24" as="targetPoint" />
          </mxGeometry>
        </mxCell>
        <mxCell id="uAxhGhGM27nR1Lqq1Pis-70" style="edgeStyle=orthogonalEdgeStyle;html=1;dashed=1;labelBackgroundColor=none;startArrow=ERone;endArrow=ERzeroToMany;fontFamily=Verdana;fontSize=12;align=left;startFill=0;endFill=0;entryX=0.5;entryY=1;entryDx=0;entryDy=0;exitX=0.5;exitY=0;exitDx=0;exitDy=0;" parent="1" source="uAxhGhGM27nR1Lqq1Pis-49" target="uAxhGhGM27nR1Lqq1Pis-65" edge="1">
          <mxGeometry relative="1" as="geometry">
            <mxPoint x="2229.88" y="-445" as="sourcePoint" />
            <mxPoint x="2229.88" y="-605" as="targetPoint" />
            <Array as="points" />
          </mxGeometry>
        </mxCell>
        <mxCell id="uAxhGhGM27nR1Lqq1Pis-71" style="edgeStyle=orthogonalEdgeStyle;html=1;dashed=1;labelBackgroundColor=none;startArrow=ERone;endArrow=ERzeroToMany;fontFamily=Verdana;fontSize=12;align=left;startFill=0;endFill=0;entryX=0.5;entryY=1;entryDx=0;entryDy=0;exitX=0.5;exitY=0;exitDx=0;exitDy=0;" parent="1" source="uAxhGhGM27nR1Lqq1Pis-54" target="uAxhGhGM27nR1Lqq1Pis-49" edge="1">
          <mxGeometry relative="1" as="geometry">
            <mxPoint x="2300" y="-565" as="sourcePoint" />
            <mxPoint x="2220" y="-576" as="targetPoint" />
            <Array as="points" />
          </mxGeometry>
        </mxCell>
        <mxCell id="uAxhGhGM27nR1Lqq1Pis-72" style="edgeStyle=orthogonalEdgeStyle;html=1;dashed=1;labelBackgroundColor=none;startArrow=ERone;endArrow=ERzeroToMany;fontFamily=Verdana;fontSize=12;align=left;startFill=0;endFill=0;entryX=0.5;entryY=0;entryDx=0;entryDy=0;exitX=0.5;exitY=1;exitDx=0;exitDy=0;" parent="1" source="uAxhGhGM27nR1Lqq1Pis-54" target="uAxhGhGM27nR1Lqq1Pis-51" edge="1">
          <mxGeometry relative="1" as="geometry">
            <mxPoint x="2430" y="-401" as="sourcePoint" />
            <mxPoint x="2430" y="-455" as="targetPoint" />
            <Array as="points" />
          </mxGeometry>
        </mxCell>
        <mxCell id="uAxhGhGM27nR1Lqq1Pis-73" style="edgeStyle=orthogonalEdgeStyle;html=1;dashed=1;labelBackgroundColor=none;startArrow=ERone;endArrow=ERzeroToMany;fontFamily=Verdana;fontSize=12;align=left;startFill=0;endFill=0;exitX=0;exitY=0.5;exitDx=0;exitDy=0;entryX=1;entryY=0.5;entryDx=0;entryDy=0;" parent="1" source="uAxhGhGM27nR1Lqq1Pis-53" target="uAxhGhGM27nR1Lqq1Pis-52" edge="1">
          <mxGeometry relative="1" as="geometry">
            <mxPoint x="2370" y="-181" as="sourcePoint" />
            <mxPoint x="2370" y="-175" as="targetPoint" />
            <Array as="points">
              <mxPoint x="2420" y="-170" />
              <mxPoint x="2420" y="-170" />
            </Array>
          </mxGeometry>
        </mxCell>
        <mxCell id="uAxhGhGM27nR1Lqq1Pis-74" style="edgeStyle=orthogonalEdgeStyle;html=1;dashed=1;labelBackgroundColor=none;startArrow=ERone;endArrow=ERmany;fontFamily=Verdana;fontSize=12;align=left;startFill=0;endFill=0;entryX=0.5;entryY=0;entryDx=0;entryDy=0;exitX=0.5;exitY=1;exitDx=0;exitDy=0;" parent="1" source="uAxhGhGM27nR1Lqq1Pis-51" target="uAxhGhGM27nR1Lqq1Pis-52" edge="1">
          <mxGeometry relative="1" as="geometry">
            <mxPoint x="2380" y="-245" as="sourcePoint" />
            <mxPoint x="2300" y="-215" as="targetPoint" />
            <Array as="points" />
          </mxGeometry>
        </mxCell>
        <mxCell id="uAxhGhGM27nR1Lqq1Pis-78" value="&lt;font style=&quot;font-size: 41px;&quot;&gt;Концептуальная модель&lt;/font&gt;" style="text;html=1;align=center;verticalAlign=middle;whiteSpace=wrap;rounded=0;strokeWidth=7;" parent="1" vertex="1">
          <mxGeometry x="290" y="-990" width="470" height="70" as="geometry" />
        </mxCell>
        <mxCell id="uAxhGhGM27nR1Lqq1Pis-79" value="&lt;font style=&quot;font-size: 41px;&quot;&gt;Логическая модель&lt;/font&gt;" style="text;html=1;align=center;verticalAlign=middle;whiteSpace=wrap;rounded=0;strokeWidth=7;" parent="1" vertex="1">
          <mxGeometry x="270" y="-100" width="470" height="70" as="geometry" />
        </mxCell>
        <mxCell id="uAxhGhGM27nR1Lqq1Pis-81" value="&lt;font style=&quot;font-size: 41px;&quot;&gt;Физическая модель&lt;/font&gt;" style="text;html=1;align=center;verticalAlign=middle;whiteSpace=wrap;rounded=0;strokeWidth=7;" parent="1" vertex="1">
          <mxGeometry x="280" y="1020" width="470" height="70" as="geometry" />
        </mxCell>
        <mxCell id="uAxhGhGM27nR1Lqq1Pis-114" value="&lt;div style=&quot;box-sizing:border-box;width:100%;background:#e4e4e4;padding:2px;&quot;&gt;&lt;span style=&quot;font-family: Helvetica; text-align: center; text-wrap-mode: wrap; background-color: rgb(251, 251, 251);&quot;&gt;user&lt;/span&gt;&lt;/div&gt;&lt;table style=&quot;width:100%;font-size:1em;&quot; cellpadding=&quot;2&quot; cellspacing=&quot;0&quot;&gt;&lt;tbody&gt;&lt;tr&gt;&lt;td&gt;PK&lt;/td&gt;&lt;td&gt;user_id: Number(14,0) NOT NULL&lt;/td&gt;&lt;/tr&gt;&lt;tr&gt;&lt;td&gt;&lt;br&gt;&lt;/td&gt;&lt;td&gt;email: Varchar2(50) NOT NULL&lt;/td&gt;&lt;/tr&gt;&lt;tr&gt;&lt;td&gt;&lt;br&gt;&lt;/td&gt;&lt;td&gt;password: Varchar2(50) NOT NULL&lt;/td&gt;&lt;/tr&gt;&lt;tr&gt;&lt;td&gt;&lt;br&gt;&lt;/td&gt;&lt;td&gt;verification_flag: Boolean DEFAULT false&lt;/td&gt;&lt;/tr&gt;&lt;tr&gt;&lt;td&gt;&lt;/td&gt;&lt;td&gt;phone_number: Varchar2(13)&amp;nbsp;&lt;/td&gt;&lt;/tr&gt;&lt;/tbody&gt;&lt;/table&gt;" style="verticalAlign=top;align=left;overflow=fill;html=1;rounded=0;shadow=0;comic=0;labelBackgroundColor=none;strokeWidth=1;fontFamily=Verdana;fontSize=12" parent="1" vertex="1">
          <mxGeometry x="340" y="1185" width="280" height="110" as="geometry" />
        </mxCell>
        <mxCell id="uAxhGhGM27nR1Lqq1Pis-115" value="&lt;div style=&quot;box-sizing: border-box ; width: 100% ; background: #e4e4e4 ; padding: 2px&quot;&gt;&lt;span style=&quot;font-family: Helvetica; text-align: center; text-wrap-mode: wrap; background-color: rgb(255, 255, 255);&quot;&gt;vehicle&lt;/span&gt;&lt;/div&gt;&lt;table style=&quot;width: 100% ; font-size: 1em&quot; cellpadding=&quot;2&quot; cellspacing=&quot;0&quot;&gt;&lt;tbody&gt;&lt;tr&gt;&lt;td&gt;PK&lt;br&gt;&lt;/td&gt;&lt;td&gt;&lt;span style=&quot;text-wrap-mode: wrap; font-family: Helvetica; text-align: center; background-color: rgb(255, 255, 255);&quot;&gt;vehicle_i&lt;/span&gt;d: Number(14,0) NOT NULL&lt;/td&gt;&lt;/tr&gt;&lt;tr&gt;&lt;td&gt;FK&lt;/td&gt;&lt;td&gt;user_id: Number(14,0) NOT NULL&lt;/td&gt;&lt;/tr&gt;&lt;tr&gt;&lt;td&gt;FK&lt;/td&gt;&lt;td&gt;vehicle_category_id: Number(14,0) NOT NULL&lt;/td&gt;&lt;/tr&gt;&lt;tr&gt;&lt;td&gt;&lt;br&gt;&lt;/td&gt;&lt;td&gt;vehicle_number: Varchar2(50) NOT NULL&lt;br&gt;&lt;/td&gt;&lt;/tr&gt;&lt;tr&gt;&lt;td&gt;&lt;/td&gt;&lt;td&gt;non-standard_vehicle_number: Boolean NOT NULL DEFAULT false&lt;br&gt;&lt;/td&gt;&lt;/tr&gt;&lt;/tbody&gt;&lt;/table&gt;" style="verticalAlign=top;align=left;overflow=fill;html=1;rounded=0;shadow=0;comic=0;labelBackgroundColor=none;strokeWidth=1;fontFamily=Verdana;fontSize=12" parent="1" vertex="1">
          <mxGeometry x="45" y="1345" width="430" height="120" as="geometry" />
        </mxCell>
        <mxCell id="uAxhGhGM27nR1Lqq1Pis-116" value="&lt;div style=&quot;box-sizing:border-box;width:100%;background:#e4e4e4;padding:2px;&quot;&gt;&lt;span style=&quot;font-family: Helvetica; text-align: center; text-wrap-mode: wrap; background-color: rgb(255, 255, 255);&quot;&gt;vehicle_category&lt;/span&gt;&lt;/div&gt;&lt;table style=&quot;width:100%;font-size:1em;&quot; cellpadding=&quot;2&quot; cellspacing=&quot;0&quot;&gt;&lt;tbody&gt;&lt;tr&gt;&lt;td&gt;PK&lt;/td&gt;&lt;td&gt;vehicle_category_id: Number(2,0) NOT NULL&lt;/td&gt;&lt;/tr&gt;&lt;tr&gt;&lt;td&gt;&lt;br&gt;&lt;/td&gt;&lt;td&gt;vehicle_category_description: Varchar2(50)&lt;/td&gt;&lt;/tr&gt;&lt;tr&gt;&lt;td&gt;&lt;/td&gt;&lt;td&gt;image: Varchar2(50)&lt;/td&gt;&lt;/tr&gt;&lt;/tbody&gt;&lt;/table&gt;" style="verticalAlign=top;align=left;overflow=fill;html=1;rounded=0;shadow=0;comic=0;labelBackgroundColor=none;strokeWidth=1;fontFamily=Verdana;fontSize=12" parent="1" vertex="1">
          <mxGeometry x="109" y="1510" width="305" height="80" as="geometry" />
        </mxCell>
        <mxCell id="uAxhGhGM27nR1Lqq1Pis-117" value="&lt;div style=&quot;box-sizing:border-box;width:100%;background:#e4e4e4;padding:2px;&quot;&gt;&lt;span style=&quot;font-family: Helvetica; text-align: center; text-wrap-mode: wrap; background-color: rgb(251, 251, 251);&quot;&gt;transponder_type&lt;/span&gt;&lt;/div&gt;&lt;table style=&quot;width:100%;font-size:1em;&quot; cellpadding=&quot;2&quot; cellspacing=&quot;0&quot;&gt;&lt;tbody&gt;&lt;tr&gt;&lt;td&gt;PK&lt;/td&gt;&lt;td&gt;transponder_type_id: Number(2,0) NOT NULL&lt;/td&gt;&lt;/tr&gt;&lt;tr&gt;&lt;td&gt;&lt;br&gt;&lt;/td&gt;&lt;td&gt;transponder_name: Varchar2(50) NOT NULL&lt;/td&gt;&lt;/tr&gt;&lt;tr&gt;&lt;td&gt;FK&lt;/td&gt;&lt;td&gt;company_id: Number(14,0) NOT NULL&lt;/td&gt;&lt;/tr&gt;&lt;tr&gt;&lt;td&gt;&lt;br&gt;&lt;/td&gt;&lt;td&gt;image: Varchar2(50)&lt;/td&gt;&lt;/tr&gt;&lt;/tbody&gt;&lt;/table&gt;" style="verticalAlign=top;align=left;overflow=fill;html=1;rounded=0;shadow=0;comic=0;labelBackgroundColor=none;strokeWidth=1;fontFamily=Verdana;fontSize=12" parent="1" vertex="1">
          <mxGeometry x="850" y="1344" width="300" height="100" as="geometry" />
        </mxCell>
        <mxCell id="uAxhGhGM27nR1Lqq1Pis-118" value="&lt;div style=&quot;box-sizing: border-box ; width: 100% ; background: #e4e4e4 ; padding: 2px&quot;&gt;&lt;span style=&quot;font-family: Helvetica; text-align: center; text-wrap-mode: wrap; background-color: rgb(251, 251, 251);&quot;&gt;payment&lt;/span&gt;&lt;/div&gt;&lt;table style=&quot;width: 100% ; font-size: 1em&quot; cellpadding=&quot;2&quot; cellspacing=&quot;0&quot;&gt;&lt;tbody&gt;&lt;tr&gt;&lt;td&gt;PK&lt;/td&gt;&lt;td&gt;card_id: Number(14,0) NOT NULL&lt;/td&gt;&lt;/tr&gt;&lt;tr&gt;&lt;td&gt;FK&lt;/td&gt;&lt;td&gt;user_id: Number(14,0) NOT NULL&lt;/td&gt;&lt;/tr&gt;&lt;tr&gt;&lt;td&gt;&lt;br&gt;&lt;/td&gt;&lt;td&gt;card_number: Varchar2(50) NOT NULL&lt;/td&gt;&lt;/tr&gt;&lt;tr&gt;&lt;td&gt;&lt;br&gt;&lt;/td&gt;&lt;td&gt;validity_period: Number(4,0) NOT NULL&lt;/td&gt;&lt;/tr&gt;&lt;tr&gt;&lt;td&gt;&lt;br&gt;&lt;/td&gt;&lt;td&gt;cvv: Varchar2(50) NOT NULL&lt;br&gt;&lt;/td&gt;&lt;/tr&gt;&lt;/tbody&gt;&lt;/table&gt;" style="verticalAlign=top;align=left;overflow=fill;html=1;rounded=0;shadow=0;comic=0;labelBackgroundColor=none;strokeWidth=1;fontFamily=Verdana;fontSize=12" parent="1" vertex="1">
          <mxGeometry x="525" y="1345" width="270" height="120" as="geometry" />
        </mxCell>
        <mxCell id="uAxhGhGM27nR1Lqq1Pis-119" value="&lt;div style=&quot;box-sizing: border-box ; width: 100% ; background: #e4e4e4 ; padding: 2px&quot;&gt;&lt;span style=&quot;font-family: Helvetica; text-align: center; text-wrap-mode: wrap; background-color: rgb(255, 255, 255);&quot;&gt;road&lt;/span&gt;&lt;/div&gt;&lt;table style=&quot;width: 100% ; font-size: 1em&quot; cellpadding=&quot;2&quot; cellspacing=&quot;0&quot;&gt;&lt;tbody&gt;&lt;tr style=&quot;font-size: 13px;&quot;&gt;&lt;td&gt;PK&lt;br&gt;&lt;/td&gt;&lt;td&gt;&lt;span style=&quot;text-wrap-mode: wrap; font-family: Helvetica; text-align: center; background-color: rgb(255, 255, 255);&quot;&gt;road_i&lt;/span&gt;d&lt;span style=&quot;font-size: 12px;&quot;&gt;: Number(14,0) NOT NULL&lt;/span&gt;&lt;/td&gt;&lt;/tr&gt;&lt;tr&gt;&lt;td&gt;&lt;br&gt;&lt;/td&gt;&lt;td&gt;road_full_name: Varchar2(50) NOT NULL&lt;/td&gt;&lt;/tr&gt;&lt;tr&gt;&lt;td&gt;&lt;br&gt;&lt;/td&gt;&lt;td&gt;road_short_name: Varchar2(50)&lt;/td&gt;&lt;/tr&gt;&lt;tr&gt;&lt;td&gt;FK&lt;/td&gt;&lt;td&gt;start_location: Number(14,0) NOT NULL&lt;/td&gt;&lt;/tr&gt;&lt;tr&gt;&lt;td&gt;FK&lt;/td&gt;&lt;td&gt;end_location: Number(14,0) NOT NULL&lt;br&gt;&lt;/td&gt;&lt;/tr&gt;&lt;tr&gt;&lt;td&gt;FK&lt;/td&gt;&lt;td&gt;company_id: Number(14,0) NOT NULL&lt;/td&gt;&lt;/tr&gt;&lt;/tbody&gt;&lt;/table&gt;" style="verticalAlign=top;align=left;overflow=fill;html=1;rounded=0;shadow=0;comic=0;labelBackgroundColor=none;strokeWidth=1;fontFamily=Verdana;fontSize=12" parent="1" vertex="1">
          <mxGeometry x="860" y="1599" width="280" height="140" as="geometry" />
        </mxCell>
        <mxCell id="uAxhGhGM27nR1Lqq1Pis-120" value="&lt;div style=&quot;box-sizing: border-box ; width: 100% ; background: #e4e4e4 ; padding: 2px&quot;&gt;&lt;span style=&quot;font-family: Helvetica; text-align: center; text-wrap-mode: wrap; background-color: rgb(255, 255, 255);&quot;&gt;location&lt;/span&gt;&lt;/div&gt;&lt;table style=&quot;width: 100% ; font-size: 1em&quot; cellpadding=&quot;2&quot; cellspacing=&quot;0&quot;&gt;&lt;tbody&gt;&lt;tr style=&quot;font-size: 13px;&quot;&gt;&lt;td&gt;PK&lt;br&gt;&lt;/td&gt;&lt;td&gt;&lt;span style=&quot;text-wrap-mode: wrap; font-family: Helvetica; text-align: center; background-color: rgb(255, 255, 255);&quot;&gt;location_i&lt;/span&gt;d&lt;span style=&quot;font-size: 12px;&quot;&gt;: Number(14,0) NOT NULL&lt;/span&gt;&lt;/td&gt;&lt;/tr&gt;&lt;tr&gt;&lt;td&gt;FK&lt;/td&gt;&lt;td&gt;road_id: Number(14,0) NOT NULL&lt;/td&gt;&lt;/tr&gt;&lt;tr&gt;&lt;td&gt;FK&lt;/td&gt;&lt;td&gt;city_id: Number(14,0)&lt;/td&gt;&lt;/tr&gt;&lt;tr&gt;&lt;td&gt;&lt;br&gt;&lt;/td&gt;&lt;td&gt;&lt;span style=&quot;font-family: Helvetica; font-size: 13px; text-align: center; text-wrap-mode: wrap; background-color: rgb(255, 255, 255);&quot;&gt;location_name&lt;/span&gt;: Varchar2(50) NOT NULL&lt;/td&gt;&lt;/tr&gt;&lt;tr&gt;&lt;td&gt;&lt;br&gt;&lt;/td&gt;&lt;td&gt;description: Varchar2(50)&lt;/td&gt;&lt;/tr&gt;&lt;tr&gt;&lt;td&gt;&lt;/td&gt;&lt;td&gt;km_of_road: Number(6,0)&lt;/td&gt;&lt;/tr&gt;&lt;tr&gt;&lt;td&gt;&lt;br&gt;&lt;/td&gt;&lt;td&gt;latitude: Number(9,6) NOT NULL&lt;/td&gt;&lt;/tr&gt;&lt;tr&gt;&lt;td&gt;&lt;br&gt;&lt;/td&gt;&lt;td&gt;longitude: Number(9,6) NOT NULL&lt;/td&gt;&lt;/tr&gt;&lt;tr&gt;&lt;td&gt;&lt;br&gt;&lt;/td&gt;&lt;td&gt;PVP: Boolean DEFAULT false NOT NULL&lt;/td&gt;&lt;/tr&gt;&lt;/tbody&gt;&lt;/table&gt;" style="verticalAlign=top;align=left;overflow=fill;html=1;rounded=0;shadow=0;comic=0;labelBackgroundColor=none;strokeWidth=1;fontFamily=Verdana;fontSize=12" parent="1" vertex="1">
          <mxGeometry x="860" y="1775" width="280" height="190" as="geometry" />
        </mxCell>
        <mxCell id="uAxhGhGM27nR1Lqq1Pis-121" value="&lt;div style=&quot;box-sizing: border-box ; width: 100% ; background: #e4e4e4 ; padding: 2px&quot;&gt;&lt;span style=&quot;font-family: Helvetica; text-align: center; text-wrap-mode: wrap; background-color: rgb(255, 255, 255);&quot;&gt;city&lt;/span&gt;&lt;/div&gt;&lt;table style=&quot;width: 100% ; font-size: 1em&quot; cellpadding=&quot;2&quot; cellspacing=&quot;0&quot;&gt;&lt;tbody&gt;&lt;tr&gt;&lt;td&gt;PK&lt;br&gt;&lt;/td&gt;&lt;td&gt;&lt;span style=&quot;text-wrap-mode: wrap; font-family: Helvetica; text-align: center; background-color: rgb(255, 255, 255);&quot;&gt;city_i&lt;/span&gt;d: Number(14,0) NOT NULL&lt;/td&gt;&lt;/tr&gt;&lt;tr&gt;&lt;td&gt;&lt;br&gt;&lt;/td&gt;&lt;td&gt;name: Varchar2(50) NOT NULL&lt;/td&gt;&lt;/tr&gt;&lt;/tbody&gt;&lt;/table&gt;" style="verticalAlign=top;align=left;overflow=fill;html=1;rounded=0;shadow=0;comic=0;labelBackgroundColor=none;strokeWidth=1;fontFamily=Verdana;fontSize=12" parent="1" vertex="1">
          <mxGeometry x="1210" y="1835" width="240" height="70" as="geometry" />
        </mxCell>
        <mxCell id="uAxhGhGM27nR1Lqq1Pis-122" value="&lt;div style=&quot;box-sizing:border-box;width:100%;background:#e4e4e4;padding:2px;&quot;&gt;&lt;span style=&quot;font-family: Helvetica; text-align: center; text-wrap-mode: wrap; background-color: rgb(251, 251, 251);&quot;&gt;company&lt;/span&gt;&lt;/div&gt;&lt;table style=&quot;width:100%;font-size:1em;&quot; cellpadding=&quot;2&quot; cellspacing=&quot;0&quot;&gt;&lt;tbody&gt;&lt;tr&gt;&lt;td&gt;PK&lt;/td&gt;&lt;td&gt;company_id: Number(14,0) NOT NULL&lt;/td&gt;&lt;/tr&gt;&lt;tr&gt;&lt;td&gt;&lt;br&gt;&lt;/td&gt;&lt;td&gt;company_full_name: Varchar2(100) NOT NULL&lt;br&gt;&lt;/td&gt;&lt;/tr&gt;&lt;tr&gt;&lt;td&gt;&lt;br&gt;&lt;/td&gt;&lt;td&gt;company_short_name: Varchar2(50)&lt;br&gt;&lt;/td&gt;&lt;/tr&gt;&lt;/tbody&gt;&lt;/table&gt;" style="verticalAlign=top;align=left;overflow=fill;html=1;rounded=0;shadow=0;comic=0;labelBackgroundColor=none;strokeWidth=1;fontFamily=Verdana;fontSize=12" parent="1" vertex="1">
          <mxGeometry x="837.5" y="1479" width="325" height="86" as="geometry" />
        </mxCell>
        <mxCell id="uAxhGhGM27nR1Lqq1Pis-129" value="&lt;div style=&quot;box-sizing: border-box; width: 100%; background: rgb(228, 228, 228); padding: 2px;&quot;&gt;&lt;font face=&quot;Helvetica&quot;&gt;&lt;span style=&quot;text-wrap-mode: wrap;&quot;&gt;from_where&lt;/span&gt;&lt;/font&gt;&lt;/div&gt;&lt;table style=&quot;width: 100% ; font-size: 1em&quot; cellpadding=&quot;2&quot; cellspacing=&quot;0&quot;&gt;&lt;tbody&gt;&lt;tr&gt;&lt;td&gt;PK&lt;/td&gt;&lt;td&gt;from_where: Number(14,0) NOT NULL&lt;/td&gt;&lt;/tr&gt;&lt;tr&gt;&lt;td&gt;FK&lt;/td&gt;&lt;td&gt;start_location: Number(14,0) NOT NULL&lt;/td&gt;&lt;/tr&gt;&lt;tr&gt;&lt;td&gt;FK&lt;/td&gt;&lt;td&gt;end_location: Number(14,0) NOT NULL&lt;/td&gt;&lt;/tr&gt;&lt;tr&gt;&lt;td&gt;&lt;br&gt;&lt;/td&gt;&lt;td&gt;image: Varchar2(50)&lt;/td&gt;&lt;/tr&gt;&lt;/tbody&gt;&lt;/table&gt;" style="verticalAlign=top;align=left;overflow=fill;html=1;rounded=0;shadow=0;comic=0;labelBackgroundColor=none;strokeWidth=1;fontFamily=Verdana;fontSize=12" parent="1" vertex="1">
          <mxGeometry x="486.5" y="1835" width="270" height="95" as="geometry" />
        </mxCell>
        <mxCell id="uAxhGhGM27nR1Lqq1Pis-133" value="&lt;div style=&quot;box-sizing: border-box ; width: 100% ; background: #e4e4e4 ; padding: 2px&quot;&gt;&lt;span style=&quot;font-family: Helvetica; text-align: center; text-wrap-mode: wrap;&quot;&gt;transponder&lt;/span&gt;&lt;/div&gt;&lt;table style=&quot;width: 100% ; font-size: 1em&quot; cellpadding=&quot;2&quot; cellspacing=&quot;0&quot;&gt;&lt;tbody&gt;&lt;tr style=&quot;font-size: 13px;&quot;&gt;&lt;td&gt;PK&lt;br&gt;&lt;/td&gt;&lt;td&gt;&lt;span style=&quot;font-size: 12px;&quot;&gt;transponder&lt;/span&gt;&lt;span style=&quot;text-wrap-mode: wrap; font-family: Helvetica; text-align: center; background-color: rgb(255, 255, 255);&quot;&gt;_i&lt;/span&gt;d&lt;span style=&quot;font-size: 12px;&quot;&gt;: Number(14,0) NOT NULL&lt;/span&gt;&lt;/td&gt;&lt;/tr&gt;&lt;tr&gt;&lt;td&gt;FK&lt;/td&gt;&lt;td&gt;user_id: Number(14,0) NOT NULL&lt;/td&gt;&lt;/tr&gt;&lt;tr&gt;&lt;td&gt;FK&lt;/td&gt;&lt;td&gt;transponder_type_id: Number(2,0) NOT NULL&lt;/td&gt;&lt;/tr&gt;&lt;tr&gt;&lt;td&gt;&lt;br&gt;&lt;/td&gt;&lt;td&gt;transponder_personal_account: Number(14,0) NOT NULL&lt;/td&gt;&lt;/tr&gt;&lt;tr&gt;&lt;td&gt;&lt;br&gt;&lt;/td&gt;&lt;td&gt;PAN: Number(14,0) NOT NULL&lt;/td&gt;&lt;/tr&gt;&lt;tr&gt;&lt;td&gt;&lt;br&gt;&lt;/td&gt;&lt;td&gt;interoperability: Boolean DEFAULT true&lt;br&gt;&lt;/td&gt;&lt;/tr&gt;&lt;/tbody&gt;&lt;/table&gt;" style="verticalAlign=top;align=left;overflow=fill;html=1;rounded=0;shadow=0;comic=0;labelBackgroundColor=none;strokeWidth=1;fontFamily=Verdana;fontSize=12" parent="1" vertex="1">
          <mxGeometry x="810" y="1169" width="380" height="140" as="geometry" />
        </mxCell>
        <mxCell id="uAxhGhGM27nR1Lqq1Pis-134" style="edgeStyle=orthogonalEdgeStyle;html=1;dashed=1;labelBackgroundColor=none;startArrow=ERone;endArrow=ERzeroToOne;fontFamily=Verdana;fontSize=12;align=left;exitX=0;exitY=0.5;exitDx=0;exitDy=0;entryX=0.5;entryY=0;entryDx=0;entryDy=0;startFill=0;endFill=0;" parent="1" source="uAxhGhGM27nR1Lqq1Pis-114" target="uAxhGhGM27nR1Lqq1Pis-115" edge="1">
          <mxGeometry relative="1" as="geometry">
            <mxPoint x="300" y="1245" as="sourcePoint" />
            <mxPoint x="200" y="1325" as="targetPoint" />
            <Array as="points">
              <mxPoint x="260" y="1240" />
            </Array>
          </mxGeometry>
        </mxCell>
        <mxCell id="uAxhGhGM27nR1Lqq1Pis-135" style="edgeStyle=orthogonalEdgeStyle;html=1;dashed=1;labelBackgroundColor=none;startArrow=ERone;endArrow=ERzeroToMany;fontFamily=Verdana;fontSize=12;align=left;exitX=0.5;exitY=1;exitDx=0;exitDy=0;startFill=0;endFill=0;entryX=0.5;entryY=0;entryDx=0;entryDy=0;" parent="1" source="uAxhGhGM27nR1Lqq1Pis-114" target="uAxhGhGM27nR1Lqq1Pis-118" edge="1">
          <mxGeometry relative="1" as="geometry">
            <mxPoint x="410" y="1336.5" as="sourcePoint" />
            <mxPoint x="410" y="1423.5" as="targetPoint" />
          </mxGeometry>
        </mxCell>
        <mxCell id="uAxhGhGM27nR1Lqq1Pis-136" style="edgeStyle=orthogonalEdgeStyle;html=1;dashed=1;labelBackgroundColor=none;startArrow=ERone;endArrow=ERzeroToMany;fontFamily=Verdana;fontSize=12;align=left;startFill=0;endFill=0;entryX=0.5;entryY=1;entryDx=0;entryDy=0;exitX=0.5;exitY=0;exitDx=0;exitDy=0;" parent="1" source="uAxhGhGM27nR1Lqq1Pis-116" target="uAxhGhGM27nR1Lqq1Pis-115" edge="1">
          <mxGeometry relative="1" as="geometry">
            <mxPoint x="240" y="1485" as="sourcePoint" />
            <mxPoint x="250" y="1475" as="targetPoint" />
            <Array as="points">
              <mxPoint x="261" y="1495" />
              <mxPoint x="260" y="1495" />
            </Array>
          </mxGeometry>
        </mxCell>
        <mxCell id="uAxhGhGM27nR1Lqq1Pis-137" style="edgeStyle=orthogonalEdgeStyle;html=1;dashed=1;labelBackgroundColor=none;startArrow=ERzeroToMany;endArrow=ERone;fontFamily=Verdana;fontSize=12;align=left;entryX=1;entryY=0.5;entryDx=0;entryDy=0;startFill=0;endFill=0;" parent="1" source="uAxhGhGM27nR1Lqq1Pis-133" target="uAxhGhGM27nR1Lqq1Pis-114" edge="1">
          <mxGeometry relative="1" as="geometry">
            <mxPoint x="980" y="1279.76" as="sourcePoint" />
            <mxPoint x="880" y="1199.76" as="targetPoint" />
          </mxGeometry>
        </mxCell>
        <mxCell id="uAxhGhGM27nR1Lqq1Pis-138" style="edgeStyle=orthogonalEdgeStyle;html=1;dashed=1;labelBackgroundColor=none;startArrow=ERone;endArrow=ERzeroToMany;fontFamily=Verdana;fontSize=12;align=left;startFill=0;endFill=0;entryX=0.5;entryY=1;entryDx=0;entryDy=0;exitX=0.5;exitY=0;exitDx=0;exitDy=0;" parent="1" source="uAxhGhGM27nR1Lqq1Pis-117" target="uAxhGhGM27nR1Lqq1Pis-133" edge="1">
          <mxGeometry relative="1" as="geometry">
            <mxPoint x="889.8800000000001" y="1594" as="sourcePoint" />
            <mxPoint x="889.8800000000001" y="1434" as="targetPoint" />
            <Array as="points" />
          </mxGeometry>
        </mxCell>
        <mxCell id="uAxhGhGM27nR1Lqq1Pis-139" style="edgeStyle=orthogonalEdgeStyle;html=1;dashed=1;labelBackgroundColor=none;startArrow=ERone;endArrow=ERzeroToMany;fontFamily=Verdana;fontSize=12;align=left;startFill=0;endFill=0;entryX=0.5;entryY=1;entryDx=0;entryDy=0;exitX=0.5;exitY=0;exitDx=0;exitDy=0;" parent="1" source="uAxhGhGM27nR1Lqq1Pis-122" target="uAxhGhGM27nR1Lqq1Pis-117" edge="1">
          <mxGeometry relative="1" as="geometry">
            <mxPoint x="960" y="1474" as="sourcePoint" />
            <mxPoint x="880" y="1463" as="targetPoint" />
            <Array as="points" />
          </mxGeometry>
        </mxCell>
        <mxCell id="uAxhGhGM27nR1Lqq1Pis-140" style="edgeStyle=orthogonalEdgeStyle;html=1;dashed=1;labelBackgroundColor=none;startArrow=ERone;endArrow=ERzeroToMany;fontFamily=Verdana;fontSize=12;align=left;startFill=0;endFill=0;entryX=0.5;entryY=0;entryDx=0;entryDy=0;exitX=0.5;exitY=1;exitDx=0;exitDy=0;" parent="1" source="uAxhGhGM27nR1Lqq1Pis-122" target="uAxhGhGM27nR1Lqq1Pis-119" edge="1">
          <mxGeometry relative="1" as="geometry">
            <mxPoint x="1090" y="1638" as="sourcePoint" />
            <mxPoint x="1090" y="1584" as="targetPoint" />
            <Array as="points" />
          </mxGeometry>
        </mxCell>
        <mxCell id="uAxhGhGM27nR1Lqq1Pis-141" style="edgeStyle=orthogonalEdgeStyle;html=1;dashed=1;labelBackgroundColor=none;startArrow=ERone;endArrow=ERzeroToMany;fontFamily=Verdana;fontSize=12;align=left;startFill=0;endFill=0;exitX=0;exitY=0.5;exitDx=0;exitDy=0;entryX=1;entryY=0.5;entryDx=0;entryDy=0;" parent="1" source="uAxhGhGM27nR1Lqq1Pis-121" target="uAxhGhGM27nR1Lqq1Pis-120" edge="1">
          <mxGeometry relative="1" as="geometry">
            <mxPoint x="1140" y="1859" as="sourcePoint" />
            <mxPoint x="1140" y="1865" as="targetPoint" />
            <Array as="points">
              <mxPoint x="1180" y="1870" />
              <mxPoint x="1180" y="1870" />
            </Array>
          </mxGeometry>
        </mxCell>
        <mxCell id="uAxhGhGM27nR1Lqq1Pis-142" style="edgeStyle=orthogonalEdgeStyle;html=1;dashed=1;labelBackgroundColor=none;startArrow=ERone;endArrow=ERmany;fontFamily=Verdana;fontSize=12;align=left;startFill=0;endFill=0;entryX=0.5;entryY=0;entryDx=0;entryDy=0;exitX=0.5;exitY=1;exitDx=0;exitDy=0;" parent="1" source="uAxhGhGM27nR1Lqq1Pis-119" target="uAxhGhGM27nR1Lqq1Pis-120" edge="1">
          <mxGeometry relative="1" as="geometry">
            <mxPoint x="1150" y="1795" as="sourcePoint" />
            <mxPoint x="1070" y="1825" as="targetPoint" />
            <Array as="points" />
          </mxGeometry>
        </mxCell>
        <mxCell id="-UF6E-ZBFcWuO2Zs2pzb-2" value="&lt;div style=&quot;box-sizing: border-box ; width: 100% ; background: #e4e4e4 ; padding: 2px&quot;&gt;&lt;span style=&quot;font-family: Helvetica; text-align: center; text-wrap-mode: wrap; background-color: initial;&quot;&gt;price&lt;/span&gt;&lt;/div&gt;&lt;table style=&quot;width: 100% ; font-size: 1em&quot; cellpadding=&quot;2&quot; cellspacing=&quot;0&quot;&gt;&lt;tbody&gt;&lt;tr&gt;&lt;td&gt;PK&lt;/td&gt;&lt;td&gt;price_id&lt;/td&gt;&lt;td&gt;Числовой&lt;/td&gt;&lt;td&gt;обяз.&lt;/td&gt;&lt;td&gt;-&lt;/td&gt;&lt;/tr&gt;&lt;tr&gt;&lt;td&gt;FK&lt;/td&gt;&lt;td&gt;from_where&lt;/td&gt;&lt;td&gt;Числовой&lt;/td&gt;&lt;td&gt;обяз.&lt;/td&gt;&lt;td&gt;-&lt;/td&gt;&lt;/tr&gt;&lt;tr&gt;&lt;td&gt;&lt;br&gt;&lt;/td&gt;&lt;td&gt;reverse&lt;/td&gt;&lt;td&gt;Логический&lt;/td&gt;&lt;td&gt;обяз.&lt;/td&gt;&lt;td&gt;false&lt;/td&gt;&lt;/tr&gt;&lt;tr&gt;&lt;td&gt;FK&lt;/td&gt;&lt;td&gt;vehicle_category_id&lt;/td&gt;&lt;td&gt;Числовой&lt;/td&gt;&lt;td&gt;обяз.&lt;/td&gt;&lt;td&gt;5&lt;/td&gt;&lt;/tr&gt;&lt;tr&gt;&lt;td&gt;FK&lt;/td&gt;&lt;td&gt;time_range_id&lt;/td&gt;&lt;td&gt;Числовой&lt;/td&gt;&lt;td&gt;обяз.&lt;/td&gt;&lt;td&gt;1&lt;/td&gt;&lt;/tr&gt;&lt;tr&gt;&lt;td&gt;FK&lt;/td&gt;&lt;td&gt;payment_type&lt;/td&gt;&lt;td&gt;Числовой&lt;/td&gt;&lt;td&gt;обяз.&lt;/td&gt;&lt;td&gt;5&lt;/td&gt;&lt;/tr&gt;&lt;tr&gt;&lt;td&gt;&lt;br&gt;&lt;/td&gt;&lt;td&gt;price&lt;/td&gt;&lt;td&gt;Числовой&lt;/td&gt;&lt;td&gt;обяз.&lt;/td&gt;&lt;td&gt;-&lt;/td&gt;&lt;/tr&gt;&lt;/tbody&gt;&lt;/table&gt;" style="verticalAlign=top;align=left;overflow=fill;html=1;rounded=0;shadow=0;comic=0;labelBackgroundColor=none;strokeWidth=1;fontFamily=Verdana;fontSize=12;" parent="1" vertex="1">
          <mxGeometry x="525" y="460" width="315" height="150" as="geometry" />
        </mxCell>
        <mxCell id="-UF6E-ZBFcWuO2Zs2pzb-3" value="В этой таблице будет &quot;отсутствующий&quot; тип транспондера&lt;div&gt;(актуально для расчета)&lt;/div&gt;" style="text;html=1;align=left;verticalAlign=middle;whiteSpace=wrap;rounded=0;" parent="1" vertex="1">
          <mxGeometry x="1220" y="260" width="145" height="60" as="geometry" />
        </mxCell>
        <mxCell id="-UF6E-ZBFcWuO2Zs2pzb-4" value="" style="endArrow=none;dashed=1;html=1;dashPattern=1 3;strokeWidth=2;rounded=0;exitX=0.25;exitY=0;exitDx=0;exitDy=0;entryX=1;entryY=0.25;entryDx=0;entryDy=0;" parent="1" source="-UF6E-ZBFcWuO2Zs2pzb-3" target="PYPsiDRyCnPlCEu5iL4S-152" edge="1">
          <mxGeometry width="50" height="50" relative="1" as="geometry">
            <mxPoint x="1385" y="330" as="sourcePoint" />
            <mxPoint x="1382" y="215" as="targetPoint" />
          </mxGeometry>
        </mxCell>
        <mxCell id="-UF6E-ZBFcWuO2Zs2pzb-16" value="Стоимость&lt;div&gt;price&lt;/div&gt;" style="rounded=0;whiteSpace=wrap;html=1;" parent="1" vertex="1">
          <mxGeometry x="855" y="-644" width="120" height="60" as="geometry" />
        </mxCell>
        <mxCell id="-UF6E-ZBFcWuO2Zs2pzb-17" style="edgeStyle=orthogonalEdgeStyle;html=1;dashed=1;labelBackgroundColor=none;startArrow=ERone;endArrow=ERzeroToMany;fontFamily=Verdana;fontSize=12;align=left;startFill=0;endFill=0;exitX=0.5;exitY=0;exitDx=0;exitDy=0;entryX=0.5;entryY=1;entryDx=0;entryDy=0;" parent="1" source="vA6MetqxZLyiD_9jzKIk-7" target="-UF6E-ZBFcWuO2Zs2pzb-2" edge="1">
          <mxGeometry relative="1" as="geometry">
            <mxPoint x="610.5" y="620" as="sourcePoint" />
            <mxPoint x="552.5" y="620" as="targetPoint" />
            <Array as="points">
              <mxPoint x="682.5" y="620" />
              <mxPoint x="682.5" y="620" />
            </Array>
          </mxGeometry>
        </mxCell>
        <mxCell id="-UF6E-ZBFcWuO2Zs2pzb-19" style="edgeStyle=orthogonalEdgeStyle;html=1;dashed=1;labelBackgroundColor=none;startArrow=ERone;endArrow=ERzeroToMany;fontFamily=Verdana;fontSize=12;align=left;startFill=0;endFill=0;exitX=0;exitY=0.5;exitDx=0;exitDy=0;entryX=1;entryY=0.5;entryDx=0;entryDy=0;" parent="1" edge="1">
          <mxGeometry relative="1" as="geometry">
            <mxPoint x="912.5" y="743" as="sourcePoint" />
            <mxPoint x="807.5" y="743" as="targetPoint" />
            <Array as="points">
              <mxPoint x="909.5" y="743" />
              <mxPoint x="909.5" y="743" />
            </Array>
          </mxGeometry>
        </mxCell>
        <mxCell id="-UF6E-ZBFcWuO2Zs2pzb-20" style="edgeStyle=orthogonalEdgeStyle;html=1;dashed=1;labelBackgroundColor=none;startArrow=ERone;endArrow=ERzeroToMany;fontFamily=Verdana;fontSize=12;align=left;startFill=0;endFill=0;exitX=0.5;exitY=1;exitDx=0;exitDy=0;entryX=0;entryY=0.5;entryDx=0;entryDy=0;" parent="1" source="PYPsiDRyCnPlCEu5iL4S-150" target="-UF6E-ZBFcWuO2Zs2pzb-2" edge="1">
          <mxGeometry relative="1" as="geometry">
            <mxPoint x="314" y="550" as="sourcePoint" />
            <mxPoint x="209" y="550" as="targetPoint" />
            <Array as="points">
              <mxPoint x="270" y="535" />
            </Array>
          </mxGeometry>
        </mxCell>
        <mxCell id="-UF6E-ZBFcWuO2Zs2pzb-21" value="&lt;div style=&quot;box-sizing: border-box ; width: 100% ; background: #e4e4e4 ; padding: 2px&quot;&gt;&lt;span style=&quot;background-color: rgb(251, 251, 251);&quot;&gt;time_range&lt;/span&gt;&lt;/div&gt;&lt;table style=&quot;width: 100% ; font-size: 1em&quot; cellpadding=&quot;2&quot; cellspacing=&quot;0&quot;&gt;&lt;tbody&gt;&lt;tr&gt;&lt;td&gt;PK&lt;br&gt;&lt;/td&gt;&lt;td&gt;time_range_id&lt;/td&gt;&lt;td&gt;Числовой&lt;/td&gt;&lt;td&gt;обяз.&lt;/td&gt;&lt;td&gt;-&lt;/td&gt;&lt;/tr&gt;&lt;tr&gt;&lt;td&gt;&lt;br&gt;&lt;/td&gt;&lt;td&gt;start_time_range&lt;/td&gt;&lt;td&gt;Дата&lt;/td&gt;&lt;td&gt;обяз.&lt;/td&gt;&lt;td&gt;-&lt;/td&gt;&lt;/tr&gt;&lt;tr&gt;&lt;td&gt;&lt;br&gt;&lt;/td&gt;&lt;td&gt;end_time_range&lt;/td&gt;&lt;td&gt;Дата&lt;/td&gt;&lt;td&gt;обяз.&lt;/td&gt;&lt;td&gt;-&lt;/td&gt;&lt;/tr&gt;&lt;/tbody&gt;&lt;/table&gt;" style="verticalAlign=top;align=left;overflow=fill;html=1;rounded=0;shadow=0;comic=0;labelBackgroundColor=none;strokeWidth=1;fontFamily=Verdana;fontSize=12;" parent="1" vertex="1">
          <mxGeometry x="170" y="630" width="293" height="70" as="geometry" />
        </mxCell>
        <mxCell id="-UF6E-ZBFcWuO2Zs2pzb-22" style="edgeStyle=orthogonalEdgeStyle;html=1;dashed=1;labelBackgroundColor=none;startArrow=ERone;endArrow=ERzeroToMany;fontFamily=Verdana;fontSize=12;align=left;startFill=0;endFill=0;exitX=1;exitY=0.5;exitDx=0;exitDy=0;entryX=0;entryY=0.657;entryDx=0;entryDy=0;entryPerimeter=0;" parent="1" source="-UF6E-ZBFcWuO2Zs2pzb-21" target="-UF6E-ZBFcWuO2Zs2pzb-2" edge="1">
          <mxGeometry relative="1" as="geometry">
            <mxPoint x="102" y="654" as="sourcePoint" />
            <mxPoint x="100" y="665" as="targetPoint" />
            <Array as="points" />
          </mxGeometry>
        </mxCell>
        <mxCell id="-UF6E-ZBFcWuO2Zs2pzb-23" style="edgeStyle=orthogonalEdgeStyle;html=1;dashed=1;labelBackgroundColor=none;startArrow=ERone;endArrow=ERzeroToMany;fontFamily=Verdana;fontSize=12;align=left;startFill=0;endFill=0;exitX=0;exitY=0.25;exitDx=0;exitDy=0;entryX=1;entryY=0.75;entryDx=0;entryDy=0;" parent="1" source="PYPsiDRyCnPlCEu5iL4S-152" target="-UF6E-ZBFcWuO2Zs2pzb-2" edge="1">
          <mxGeometry relative="1" as="geometry">
            <mxPoint x="745.02" y="376" as="sourcePoint" />
            <mxPoint x="807.02" y="270" as="targetPoint" />
            <Array as="points" />
          </mxGeometry>
        </mxCell>
        <mxCell id="-UF6E-ZBFcWuO2Zs2pzb-35" value="Комбинации участков дорог" style="text;html=1;align=center;verticalAlign=middle;whiteSpace=wrap;rounded=0;" parent="1" vertex="1">
          <mxGeometry x="1712" y="-105" width="220" height="30" as="geometry" />
        </mxCell>
        <mxCell id="-UF6E-ZBFcWuO2Zs2pzb-36" value="" style="endArrow=none;dashed=1;html=1;dashPattern=1 3;strokeWidth=2;rounded=0;entryX=0.5;entryY=0;entryDx=0;entryDy=0;exitX=0.5;exitY=1;exitDx=0;exitDy=0;" parent="1" target="-UF6E-ZBFcWuO2Zs2pzb-35" edge="1">
          <mxGeometry width="50" height="50" relative="1" as="geometry">
            <mxPoint x="1862.5" y="-122" as="sourcePoint" />
            <mxPoint x="2072" y="-305" as="targetPoint" />
          </mxGeometry>
        </mxCell>
        <mxCell id="-UF6E-ZBFcWuO2Zs2pzb-37" value="&lt;div style=&quot;box-sizing: border-box ; width: 100% ; background: #e4e4e4 ; padding: 2px&quot;&gt;&lt;span style=&quot;font-family: Helvetica; text-align: center; text-wrap-mode: wrap; background-color: initial;&quot;&gt;price&lt;/span&gt;&lt;/div&gt;&lt;table style=&quot;width: 100% ; font-size: 1em&quot; cellpadding=&quot;2&quot; cellspacing=&quot;0&quot;&gt;&lt;tbody&gt;&lt;tr&gt;&lt;td&gt;price_id&lt;/td&gt;&lt;td&gt;Числовой&lt;/td&gt;&lt;td&gt;обяз.&lt;/td&gt;&lt;td&gt;-&lt;/td&gt;&lt;/tr&gt;&lt;tr&gt;&lt;td&gt;from_where&lt;/td&gt;&lt;td&gt;Числовой&lt;/td&gt;&lt;td&gt;обяз.&lt;/td&gt;&lt;td&gt;-&lt;/td&gt;&lt;/tr&gt;&lt;tr&gt;&lt;td&gt;reverse&lt;/td&gt;&lt;td&gt;Логический&lt;/td&gt;&lt;td&gt;обяз.&lt;/td&gt;&lt;td&gt;false&lt;/td&gt;&lt;/tr&gt;&lt;tr&gt;&lt;td&gt;vehicle_category_id&lt;/td&gt;&lt;td&gt;Числовой&lt;/td&gt;&lt;td&gt;обяз.&lt;/td&gt;&lt;td&gt;5&lt;/td&gt;&lt;/tr&gt;&lt;tr&gt;&lt;td&gt;time_range_id&lt;/td&gt;&lt;td&gt;Числовой&lt;/td&gt;&lt;td&gt;обяз.&lt;/td&gt;&lt;td&gt;1&lt;/td&gt;&lt;/tr&gt;&lt;tr&gt;&lt;td&gt;payment_type&lt;/td&gt;&lt;td&gt;Числовой&lt;/td&gt;&lt;td&gt;обяз.&lt;/td&gt;&lt;td&gt;5&lt;/td&gt;&lt;/tr&gt;&lt;tr&gt;&lt;td&gt;price&lt;/td&gt;&lt;td&gt;Числовой&lt;/td&gt;&lt;td&gt;обяз.&lt;/td&gt;&lt;td&gt;-&lt;/td&gt;&lt;/tr&gt;&lt;/tbody&gt;&lt;/table&gt;" style="verticalAlign=top;align=left;overflow=fill;html=1;rounded=0;shadow=0;comic=0;labelBackgroundColor=none;strokeWidth=1;fontFamily=Verdana;fontSize=12;" parent="1" vertex="1">
          <mxGeometry x="1704.5" y="-435" width="315" height="150" as="geometry" />
        </mxCell>
        <mxCell id="-UF6E-ZBFcWuO2Zs2pzb-38" style="edgeStyle=orthogonalEdgeStyle;html=1;dashed=1;labelBackgroundColor=none;startArrow=ERone;endArrow=ERzeroToMany;fontFamily=Verdana;fontSize=12;align=left;startFill=0;endFill=0;exitX=0.5;exitY=0;exitDx=0;exitDy=0;entryX=0.5;entryY=1;entryDx=0;entryDy=0;" parent="1" target="-UF6E-ZBFcWuO2Zs2pzb-37" edge="1">
          <mxGeometry relative="1" as="geometry">
            <mxPoint x="1862.5" y="-217" as="sourcePoint" />
            <mxPoint x="1732" y="-275" as="targetPoint" />
            <Array as="points">
              <mxPoint x="1862" y="-275" />
              <mxPoint x="1862" y="-275" />
            </Array>
          </mxGeometry>
        </mxCell>
        <mxCell id="-UF6E-ZBFcWuO2Zs2pzb-40" style="edgeStyle=orthogonalEdgeStyle;html=1;dashed=1;labelBackgroundColor=none;startArrow=ERone;endArrow=ERzeroToMany;fontFamily=Verdana;fontSize=12;align=left;startFill=0;endFill=0;exitX=0.5;exitY=1;exitDx=0;exitDy=0;entryX=0;entryY=0.5;entryDx=0;entryDy=0;" parent="1" target="-UF6E-ZBFcWuO2Zs2pzb-37" edge="1">
          <mxGeometry relative="1" as="geometry">
            <mxPoint x="1449.5" y="-455" as="sourcePoint" />
            <mxPoint x="1388.5" y="-345" as="targetPoint" />
            <Array as="points">
              <mxPoint x="1449.5" y="-360" />
            </Array>
          </mxGeometry>
        </mxCell>
        <mxCell id="-UF6E-ZBFcWuO2Zs2pzb-41" value="&lt;div style=&quot;box-sizing: border-box ; width: 100% ; background: #e4e4e4 ; padding: 2px&quot;&gt;&lt;span style=&quot;background-color: rgb(251, 251, 251);&quot;&gt;time_range&lt;/span&gt;&lt;/div&gt;&lt;table style=&quot;width: 100% ; font-size: 1em&quot; cellpadding=&quot;2&quot; cellspacing=&quot;0&quot;&gt;&lt;tbody&gt;&lt;tr&gt;&lt;td&gt;time_range_id&lt;/td&gt;&lt;td&gt;Числовой&lt;/td&gt;&lt;td&gt;обяз.&lt;/td&gt;&lt;td&gt;-&lt;/td&gt;&lt;/tr&gt;&lt;tr&gt;&lt;td&gt;start_time_range&lt;/td&gt;&lt;td&gt;Дата&lt;/td&gt;&lt;td&gt;обяз.&lt;/td&gt;&lt;td&gt;-&lt;/td&gt;&lt;/tr&gt;&lt;tr&gt;&lt;td&gt;end_time_range&lt;/td&gt;&lt;td&gt;Дата&lt;/td&gt;&lt;td&gt;обяз.&lt;/td&gt;&lt;td&gt;-&lt;/td&gt;&lt;/tr&gt;&lt;/tbody&gt;&lt;/table&gt;" style="verticalAlign=top;align=left;overflow=fill;html=1;rounded=0;shadow=0;comic=0;labelBackgroundColor=none;strokeWidth=1;fontFamily=Verdana;fontSize=12;" parent="1" vertex="1">
          <mxGeometry x="1349.5" y="-265" width="293" height="70" as="geometry" />
        </mxCell>
        <mxCell id="-UF6E-ZBFcWuO2Zs2pzb-42" style="edgeStyle=orthogonalEdgeStyle;html=1;dashed=1;labelBackgroundColor=none;startArrow=ERone;endArrow=ERzeroToMany;fontFamily=Verdana;fontSize=12;align=left;startFill=0;endFill=0;exitX=1;exitY=0.5;exitDx=0;exitDy=0;entryX=0;entryY=0.657;entryDx=0;entryDy=0;entryPerimeter=0;" parent="1" source="-UF6E-ZBFcWuO2Zs2pzb-41" target="-UF6E-ZBFcWuO2Zs2pzb-37" edge="1">
          <mxGeometry relative="1" as="geometry">
            <mxPoint x="1281.5" y="-241" as="sourcePoint" />
            <mxPoint x="1279.5" y="-230" as="targetPoint" />
            <Array as="points" />
          </mxGeometry>
        </mxCell>
        <mxCell id="-UF6E-ZBFcWuO2Zs2pzb-43" style="edgeStyle=orthogonalEdgeStyle;html=1;dashed=1;labelBackgroundColor=none;startArrow=ERone;endArrow=ERzeroToMany;fontFamily=Verdana;fontSize=12;align=left;startFill=0;endFill=0;exitX=0;exitY=0.25;exitDx=0;exitDy=0;entryX=1;entryY=0.75;entryDx=0;entryDy=0;" parent="1" target="-UF6E-ZBFcWuO2Zs2pzb-37" edge="1">
          <mxGeometry relative="1" as="geometry">
            <mxPoint x="2089.5" y="-670" as="sourcePoint" />
            <mxPoint x="1986.52" y="-625" as="targetPoint" />
            <Array as="points" />
          </mxGeometry>
        </mxCell>
        <mxCell id="-UF6E-ZBFcWuO2Zs2pzb-44" value="В этой таблице будет &quot;отсутствующий&quot; тип транспондера&lt;div&gt;(актуально для расчета)&lt;/div&gt;" style="text;html=1;align=left;verticalAlign=middle;whiteSpace=wrap;rounded=0;" parent="1" vertex="1">
          <mxGeometry x="2400" y="-617.5" width="145" height="60" as="geometry" />
        </mxCell>
        <mxCell id="-UF6E-ZBFcWuO2Zs2pzb-45" value="" style="endArrow=none;dashed=1;html=1;dashPattern=1 3;strokeWidth=2;rounded=0;exitX=0.25;exitY=0;exitDx=0;exitDy=0;entryX=1;entryY=0.25;entryDx=0;entryDy=0;" parent="1" source="-UF6E-ZBFcWuO2Zs2pzb-44" edge="1">
          <mxGeometry width="50" height="50" relative="1" as="geometry">
            <mxPoint x="2565" y="-547.5" as="sourcePoint" />
            <mxPoint x="2370" y="-652.5" as="targetPoint" />
          </mxGeometry>
        </mxCell>
        <mxCell id="-UF6E-ZBFcWuO2Zs2pzb-46" style="edgeStyle=orthogonalEdgeStyle;html=1;dashed=1;labelBackgroundColor=none;startArrow=ERone;endArrow=ERoneToMany;fontFamily=Verdana;fontSize=12;align=left;startFill=0;endFill=0;entryX=1;entryY=0.5;entryDx=0;entryDy=0;" parent="1" edge="1">
          <mxGeometry relative="1" as="geometry">
            <mxPoint x="860" y="1882" as="sourcePoint" />
            <mxPoint x="756.5" y="1882.16" as="targetPoint" />
            <Array as="points">
              <mxPoint x="858.5" y="1882.16" />
              <mxPoint x="858.5" y="1882.16" />
            </Array>
          </mxGeometry>
        </mxCell>
        <mxCell id="-UF6E-ZBFcWuO2Zs2pzb-47" value="&lt;div style=&quot;box-sizing: border-box ; width: 100% ; background: #e4e4e4 ; padding: 2px&quot;&gt;&lt;span style=&quot;font-family: Helvetica; text-align: center; text-wrap-mode: wrap; background-color: initial;&quot;&gt;price&lt;/span&gt;&lt;/div&gt;&lt;table style=&quot;width: 100% ; font-size: 1em&quot; cellpadding=&quot;2&quot; cellspacing=&quot;0&quot;&gt;&lt;tbody&gt;&lt;tr&gt;&lt;td&gt;PK&lt;/td&gt;&lt;td&gt;price_id: Number(14,0) NOT NULL&amp;nbsp;&lt;br&gt;&lt;/td&gt;&lt;/tr&gt;&lt;tr&gt;&lt;td&gt;FK&lt;/td&gt;&lt;td&gt;from_where: Number(14,0) NOT NULL&lt;/td&gt;&lt;/tr&gt;&lt;tr&gt;&lt;td&gt;&lt;br&gt;&lt;/td&gt;&lt;td&gt;reverse: BooleanNOT NULL DEFAULT false&lt;br&gt;&lt;/td&gt;&lt;/tr&gt;&lt;tr&gt;&lt;td&gt;FK&lt;/td&gt;&lt;td&gt;vehicle_category_id: Number(2,0) NOT NULL&amp;nbsp;DEFAULT 5&lt;/td&gt;&lt;/tr&gt;&lt;tr&gt;&lt;td&gt;FK&lt;/td&gt;&lt;td&gt;time_range_id: Number(4,0) NOT NULL DEFAULT 1&lt;/td&gt;&lt;/tr&gt;&lt;tr&gt;&lt;td&gt;FK&lt;/td&gt;&lt;td&gt;payment_type: Number(2,0) NOT NULL&amp;nbsp;DEFAULT 5&lt;/td&gt;&lt;/tr&gt;&lt;tr&gt;&lt;td&gt;&lt;br&gt;&lt;/td&gt;&lt;td&gt;price: Number(5,2) NOT NULL&lt;/td&gt;&lt;/tr&gt;&lt;/tbody&gt;&lt;/table&gt;" style="verticalAlign=top;align=left;overflow=fill;html=1;rounded=0;shadow=0;comic=0;labelBackgroundColor=none;strokeWidth=1;fontFamily=Verdana;fontSize=12;" parent="1" vertex="1">
          <mxGeometry x="436.5" y="1615" width="370" height="150" as="geometry" />
        </mxCell>
        <mxCell id="-UF6E-ZBFcWuO2Zs2pzb-48" style="edgeStyle=orthogonalEdgeStyle;html=1;dashed=1;labelBackgroundColor=none;startArrow=ERone;endArrow=ERzeroToMany;fontFamily=Verdana;fontSize=12;align=left;startFill=0;endFill=0;exitX=0.5;exitY=0;exitDx=0;exitDy=0;entryX=0.5;entryY=1;entryDx=0;entryDy=0;" parent="1" target="-UF6E-ZBFcWuO2Zs2pzb-47" edge="1">
          <mxGeometry relative="1" as="geometry">
            <mxPoint x="622" y="1833" as="sourcePoint" />
            <mxPoint x="491.5" y="1775" as="targetPoint" />
            <Array as="points">
              <mxPoint x="621.5" y="1775" />
              <mxPoint x="621.5" y="1775" />
            </Array>
          </mxGeometry>
        </mxCell>
        <mxCell id="-UF6E-ZBFcWuO2Zs2pzb-49" style="edgeStyle=orthogonalEdgeStyle;html=1;dashed=1;labelBackgroundColor=none;startArrow=ERone;endArrow=ERoneToMany;fontFamily=Verdana;fontSize=12;align=left;startFill=0;endFill=0;exitX=-0.002;exitY=0.682;exitDx=0;exitDy=0;entryX=1;entryY=0.5;entryDx=0;entryDy=0;exitPerimeter=0;" parent="1" source="uAxhGhGM27nR1Lqq1Pis-120" edge="1">
          <mxGeometry relative="1" as="geometry">
            <mxPoint x="861.5" y="1905" as="sourcePoint" />
            <mxPoint x="756.5" y="1905" as="targetPoint" />
            <Array as="points" />
          </mxGeometry>
        </mxCell>
        <mxCell id="-UF6E-ZBFcWuO2Zs2pzb-50" style="edgeStyle=orthogonalEdgeStyle;html=1;dashed=1;labelBackgroundColor=none;startArrow=ERone;endArrow=ERzeroToMany;fontFamily=Verdana;fontSize=12;align=left;startFill=0;endFill=0;exitX=0.5;exitY=1;exitDx=0;exitDy=0;entryX=0;entryY=0.5;entryDx=0;entryDy=0;" parent="1" source="uAxhGhGM27nR1Lqq1Pis-116" target="-UF6E-ZBFcWuO2Zs2pzb-47" edge="1">
          <mxGeometry relative="1" as="geometry">
            <mxPoint x="209" y="1595" as="sourcePoint" />
            <mxPoint x="148" y="1705" as="targetPoint" />
            <Array as="points">
              <mxPoint x="262" y="1690" />
            </Array>
          </mxGeometry>
        </mxCell>
        <mxCell id="-UF6E-ZBFcWuO2Zs2pzb-51" value="&lt;div style=&quot;box-sizing: border-box ; width: 100% ; background: #e4e4e4 ; padding: 2px&quot;&gt;&lt;span style=&quot;background-color: rgb(251, 251, 251);&quot;&gt;time_range&lt;/span&gt;&lt;/div&gt;&lt;table style=&quot;width: 100% ; font-size: 1em&quot; cellpadding=&quot;2&quot; cellspacing=&quot;0&quot;&gt;&lt;tbody&gt;&lt;tr&gt;&lt;td&gt;PK&lt;br&gt;&lt;/td&gt;&lt;td&gt;time_range_id: Number(4,0) NOT NULL&lt;/td&gt;&lt;/tr&gt;&lt;tr&gt;&lt;td&gt;&lt;br&gt;&lt;/td&gt;&lt;td&gt;start_time_range: Date&amp;nbsp;NOT NULL&lt;br&gt;&lt;/td&gt;&lt;/tr&gt;&lt;tr&gt;&lt;td&gt;&lt;br&gt;&lt;/td&gt;&lt;td&gt;end_time_range: Date&amp;nbsp;NOT NULL&lt;span style=&quot;white-space-collapse: preserve;&quot;&gt;&#x9;&lt;/span&gt;&lt;/td&gt;&lt;/tr&gt;&lt;/tbody&gt;&lt;/table&gt;" style="verticalAlign=top;align=left;overflow=fill;html=1;rounded=0;shadow=0;comic=0;labelBackgroundColor=none;strokeWidth=1;fontFamily=Verdana;fontSize=12;" parent="1" vertex="1">
          <mxGeometry x="130" y="1785" width="272" height="70" as="geometry" />
        </mxCell>
        <mxCell id="-UF6E-ZBFcWuO2Zs2pzb-52" style="edgeStyle=orthogonalEdgeStyle;html=1;dashed=1;labelBackgroundColor=none;startArrow=ERone;endArrow=ERzeroToMany;fontFamily=Verdana;fontSize=12;align=left;startFill=0;endFill=0;exitX=1;exitY=0.5;exitDx=0;exitDy=0;entryX=0;entryY=0.657;entryDx=0;entryDy=0;entryPerimeter=0;" parent="1" source="-UF6E-ZBFcWuO2Zs2pzb-51" target="-UF6E-ZBFcWuO2Zs2pzb-47" edge="1">
          <mxGeometry relative="1" as="geometry">
            <mxPoint x="41" y="1809" as="sourcePoint" />
            <mxPoint x="39" y="1820" as="targetPoint" />
            <Array as="points" />
          </mxGeometry>
        </mxCell>
        <mxCell id="-UF6E-ZBFcWuO2Zs2pzb-53" style="edgeStyle=orthogonalEdgeStyle;html=1;dashed=1;labelBackgroundColor=none;startArrow=ERone;endArrow=ERzeroToMany;fontFamily=Verdana;fontSize=12;align=left;startFill=0;endFill=0;exitX=0;exitY=0.25;exitDx=0;exitDy=0;entryX=1;entryY=0.542;entryDx=0;entryDy=0;entryPerimeter=0;" parent="1" target="-UF6E-ZBFcWuO2Zs2pzb-47" edge="1">
          <mxGeometry relative="1" as="geometry">
            <mxPoint x="849" y="1380" as="sourcePoint" />
            <mxPoint x="746.02" y="1425" as="targetPoint" />
            <Array as="points" />
          </mxGeometry>
        </mxCell>
        <mxCell id="-UF6E-ZBFcWuO2Zs2pzb-54" style="edgeStyle=orthogonalEdgeStyle;html=1;dashed=1;labelBackgroundColor=none;startArrow=ERone;endArrow=ERzeroToMany;fontFamily=Verdana;fontSize=12;align=left;startFill=0;endFill=0;exitX=0;exitY=0.5;exitDx=0;exitDy=0;entryX=1;entryY=0.5;entryDx=0;entryDy=0;" parent="1" target="uAxhGhGM27nR1Lqq1Pis-61" edge="1">
          <mxGeometry relative="1" as="geometry">
            <mxPoint x="2092.5" y="-170" as="sourcePoint" />
            <mxPoint x="1987.5" y="-170" as="targetPoint" />
            <Array as="points" />
          </mxGeometry>
        </mxCell>
        <mxCell id="-UF6E-ZBFcWuO2Zs2pzb-55" style="edgeStyle=orthogonalEdgeStyle;html=1;dashed=1;labelBackgroundColor=none;startArrow=ERone;endArrow=ERzeroToMany;fontFamily=Verdana;fontSize=12;align=left;startFill=0;endFill=0;exitX=0;exitY=0.5;exitDx=0;exitDy=0;" parent="1" edge="1">
          <mxGeometry relative="1" as="geometry">
            <mxPoint x="2092" y="-152" as="sourcePoint" />
            <mxPoint x="1980" y="-152" as="targetPoint" />
            <Array as="points">
              <mxPoint x="2089" y="-152" />
              <mxPoint x="2089" y="-152" />
            </Array>
          </mxGeometry>
        </mxCell>
        <mxCell id="cnc2wj8c-ieDiaQ1Fnt0-1" value="Значения по умолчанию:&lt;div&gt;для категории ТС - &quot;любое ТС&quot;&lt;/div&gt;&lt;div&gt;для временного отрезка - &quot;Весь день&quot;&lt;/div&gt;&lt;div&gt;для типа оплаты - &quot;Наличными&quot;&lt;/div&gt;" style="text;html=1;align=left;verticalAlign=middle;whiteSpace=wrap;rounded=0;" parent="1" vertex="1">
          <mxGeometry x="610" y="365" width="220" height="75" as="geometry" />
        </mxCell>
        <mxCell id="cnc2wj8c-ieDiaQ1Fnt0-2" value="" style="endArrow=none;dashed=1;html=1;dashPattern=1 3;strokeWidth=2;rounded=0;entryX=0.5;entryY=1;entryDx=0;entryDy=0;exitX=0.75;exitY=0;exitDx=0;exitDy=0;" parent="1" source="-UF6E-ZBFcWuO2Zs2pzb-2" target="cnc2wj8c-ieDiaQ1Fnt0-1" edge="1">
          <mxGeometry width="50" height="50" relative="1" as="geometry">
            <mxPoint x="690" y="420" as="sourcePoint" />
            <mxPoint x="850" y="166.5" as="targetPoint" />
            <Array as="points" />
          </mxGeometry>
        </mxCell>
        <mxCell id="cnc2wj8c-ieDiaQ1Fnt0-3" value="Значения по умолчанию:&lt;div&gt;для категории ТС - &quot;любое ТС&quot;&lt;/div&gt;&lt;div&gt;для временного отрезка - &quot;Весь день&quot;&lt;/div&gt;&lt;div&gt;для типа оплаты - &quot;Наличными&quot;&lt;/div&gt;" style="text;html=1;align=left;verticalAlign=middle;whiteSpace=wrap;rounded=0;" parent="1" vertex="1">
          <mxGeometry x="1799.5" y="-530" width="220" height="75" as="geometry" />
        </mxCell>
        <mxCell id="cnc2wj8c-ieDiaQ1Fnt0-4" value="" style="endArrow=none;dashed=1;html=1;dashPattern=1 3;strokeWidth=2;rounded=0;entryX=0.5;entryY=1;entryDx=0;entryDy=0;exitX=0.75;exitY=0;exitDx=0;exitDy=0;" parent="1" target="cnc2wj8c-ieDiaQ1Fnt0-3" edge="1">
          <mxGeometry width="50" height="50" relative="1" as="geometry">
            <mxPoint x="1950.5" y="-435" as="sourcePoint" />
            <mxPoint x="2039.5" y="-728.5" as="targetPoint" />
            <Array as="points" />
          </mxGeometry>
        </mxCell>
      </root>
    </mxGraphModel>
  </diagram>
</mxfile>
